<svg width="866" height="866" viewBox="0 0 866 866" fill="none" xmlns="http://www.w3.org/2000/svg">
<g opacity="0.6">
<path d="M599.272 547.451C606.893 555.074 616.555 560.332 627.095 562.592C637.635 564.853 648.604 564.019 658.681 560.191C668.758 556.363 677.514 549.705 683.896 541.017C690.277 532.329 694.012 521.982 694.65 511.222C695.289 500.461 692.804 489.745 687.495 480.364C682.185 470.982 674.278 463.335 664.724 458.343C655.171 453.35 644.378 451.225 633.644 452.223C622.911 453.221 612.695 457.3 604.225 463.968L584.134 453.195L594.907 473.286C586.433 484.041 582.197 497.529 583.001 511.198C583.806 524.866 589.595 537.764 599.272 547.451Z" fill="#6BA2EE"/>
<path opacity="0.7" d="M599.272 547.451C606.893 555.074 616.555 560.332 627.095 562.592C637.635 564.853 648.604 564.019 658.681 560.191C668.758 556.363 677.514 549.705 683.896 541.017C690.277 532.329 694.012 521.982 694.65 511.222C695.289 500.461 692.804 489.745 687.495 480.364C682.185 470.982 674.278 463.335 664.724 458.343C655.171 453.35 644.378 451.225 633.644 452.223C622.911 453.221 612.695 457.3 604.225 463.968L584.134 453.195L594.907 473.286C586.433 484.041 582.197 497.529 583.001 511.198C583.806 524.866 589.595 537.764 599.272 547.451Z" fill="white"/>
<path d="M637.376 478.309L611.015 498.989V535.586C611.015 536.045 611.197 536.486 611.522 536.811C611.847 537.136 612.288 537.318 612.747 537.318H666.075C666.535 537.318 666.975 537.136 667.3 536.811C667.625 536.486 667.807 536.045 667.807 535.586V498.989L641.429 478.309C640.839 477.883 640.13 477.654 639.402 477.654C638.675 477.654 637.966 477.883 637.376 478.309Z" fill="#6BA2EE"/>
<path d="M658.974 472.992H619.917V525.974H658.974V472.992Z" fill="white"/>
<path d="M639.489 521.332L611.015 498.989V535.586C611.015 536.046 611.197 536.486 611.522 536.811C611.847 537.136 612.288 537.318 612.747 537.318H666.075C666.535 537.318 666.975 537.136 667.3 536.811C667.625 536.486 667.807 536.046 667.807 535.586V498.989L639.489 521.332Z" fill="#6BA2EE"/>
<path opacity="0.2" d="M639.489 521.332L611.015 498.989V535.586C611.015 536.046 611.197 536.486 611.522 536.811C611.847 537.136 612.288 537.318 612.747 537.318H666.075C666.535 537.318 666.975 537.136 667.3 536.811C667.625 536.486 667.807 536.046 667.807 535.586V498.989L639.489 521.332Z" fill="white"/>
<path d="M652.808 478.811H626.083V480.543H652.808V478.811Z" fill="#6BA2EE"/>
<path d="M652.808 483.765H626.083V485.497H652.808V483.765Z" fill="#6BA2EE"/>
<path d="M652.808 488.735H626.083V490.467H652.808V488.735Z" fill="#6BA2EE"/>
<path d="M652.808 493.707H626.083V495.439H652.808V493.707Z" fill="#6BA2EE"/>
<path d="M652.808 498.677H626.083V500.409H652.808V498.677Z" fill="#6BA2EE"/>
<path d="M642.416 503.648H626.083V505.38H642.416V503.648Z" fill="#6BA2EE"/>
<path d="M638.779 564.632C628.158 564.655 617.743 561.698 608.72 556.096C599.696 550.494 592.425 542.473 587.734 532.944C583.042 523.415 581.119 512.761 582.182 502.194C583.245 491.626 587.252 481.569 593.747 473.165L583.251 453.576C583.161 453.412 583.127 453.223 583.155 453.039C583.184 452.854 583.272 452.684 583.407 452.554C583.538 452.422 583.708 452.335 583.892 452.307C584.076 452.279 584.264 452.311 584.429 452.398L604.018 462.911C611.168 457.383 619.534 453.641 628.422 451.996C637.309 450.351 646.461 450.851 655.116 453.454C663.771 456.058 671.68 460.69 678.185 466.964C684.69 473.239 689.604 480.976 692.517 489.532C695.431 498.088 696.261 507.215 694.937 516.156C693.613 525.097 690.175 533.593 684.908 540.938C679.64 548.283 672.696 554.264 664.652 558.385C656.607 562.506 647.696 564.648 638.658 564.632H638.779ZM586.195 455.291L595.617 472.836C595.694 472.984 595.727 473.15 595.712 473.316C595.697 473.482 595.634 473.64 595.531 473.771C586.843 484.8 582.696 498.732 583.938 512.717C585.181 526.702 591.719 539.684 602.216 549.008C612.713 558.332 626.375 563.294 640.409 562.88C654.443 562.465 667.788 556.705 677.716 546.777C687.644 536.849 693.404 523.504 693.819 509.47C694.234 495.436 689.271 481.773 679.947 471.277C670.623 460.78 657.641 454.242 643.656 452.999C629.671 451.757 615.739 455.903 604.71 464.592C604.58 464.702 604.418 464.77 604.248 464.786C604.077 464.801 603.906 464.764 603.758 464.678L586.195 455.291Z" fill="#6BA2EE"/>
<g opacity="0.7">
<path d="M638.779 564.632C628.158 564.655 617.743 561.698 608.72 556.096C599.696 550.494 592.425 542.473 587.734 532.944C583.042 523.415 581.119 512.761 582.182 502.194C583.245 491.626 587.252 481.569 593.747 473.165L583.251 453.576C583.161 453.412 583.127 453.223 583.155 453.039C583.184 452.854 583.272 452.684 583.407 452.554C583.538 452.422 583.708 452.335 583.892 452.307C584.076 452.279 584.264 452.311 584.429 452.398L604.018 462.911C611.168 457.383 619.534 453.641 628.422 451.996C637.309 450.351 646.461 450.851 655.116 453.454C663.771 456.058 671.68 460.69 678.185 466.964C684.69 473.239 689.604 480.976 692.517 489.532C695.431 498.088 696.261 507.215 694.937 516.156C693.613 525.097 690.175 533.593 684.908 540.938C679.64 548.283 672.696 554.264 664.652 558.385C656.607 562.506 647.696 564.648 638.658 564.632H638.779ZM586.195 455.291L595.617 472.836C595.694 472.984 595.727 473.15 595.712 473.316C595.697 473.482 595.634 473.64 595.531 473.771C586.843 484.8 582.696 498.732 583.938 512.717C585.181 526.702 591.719 539.684 602.216 549.008C612.713 558.332 626.375 563.294 640.409 562.88C654.443 562.465 667.788 556.705 677.716 546.777C687.644 536.849 693.404 523.504 693.819 509.47C694.234 495.436 689.271 481.773 679.947 471.277C670.623 460.78 657.641 454.242 643.656 452.999C629.671 451.757 615.739 455.903 604.71 464.592C604.58 464.702 604.418 464.77 604.248 464.786C604.077 464.801 603.906 464.764 603.758 464.678L586.195 455.291Z" fill="#6BA2EE"/>
</g>
<path d="M678.32 348.219C685.946 340.598 691.207 330.936 693.469 320.396C695.732 309.855 694.9 298.885 691.073 288.807C687.246 278.728 680.588 269.97 671.9 263.588C663.211 257.205 652.864 253.469 642.102 252.831C631.34 252.192 620.623 254.677 611.241 259.988C601.859 265.298 594.212 273.207 589.22 282.762C584.227 292.317 582.104 303.111 583.103 313.846C584.103 324.58 588.184 334.796 594.855 343.265L584.082 363.356L604.173 352.601C614.927 361.071 628.414 365.304 642.079 364.496C655.745 363.689 668.639 357.897 678.32 348.219Z" fill="#FF6B6B"/>
<path opacity="0.7" d="M678.32 348.219C685.946 340.598 691.207 330.936 693.469 320.396C695.732 309.855 694.9 298.885 691.073 288.807C687.246 278.728 680.588 269.97 671.9 263.588C663.211 257.205 652.864 253.469 642.102 252.831C631.34 252.192 620.623 254.677 611.241 259.988C601.859 265.298 594.212 273.207 589.22 282.762C584.227 292.317 582.104 303.111 583.103 313.846C584.103 324.58 588.184 334.796 594.855 343.265L584.082 363.356L604.173 352.601C614.927 361.071 628.414 365.304 642.079 364.496C655.745 363.689 668.639 357.897 678.32 348.219Z" fill="white"/>
<path d="M666.907 296.293H618.047C616.593 296.293 615.414 297.472 615.414 298.926V330.656C615.414 332.11 616.593 333.289 618.047 333.289H666.907C668.361 333.289 669.539 332.11 669.539 330.656V298.926C669.539 297.472 668.361 296.293 666.907 296.293Z" fill="#FF6B6B"/>
<path opacity="0.4" d="M669.539 298.926V317.181H615.414V298.926C615.414 298.228 615.692 297.558 616.185 297.065C616.679 296.571 617.349 296.293 618.047 296.293H666.924C667.619 296.298 668.284 296.577 668.774 297.071C669.264 297.564 669.539 298.231 669.539 298.926Z" fill="white"/>
<path opacity="0.4" d="M615.414 325.755H669.539V330.674C669.535 331.366 669.258 332.029 668.768 332.518C668.279 333.008 667.616 333.285 666.924 333.289H618.047C617.352 333.289 616.685 333.014 616.191 332.524C615.698 332.034 615.419 331.369 615.414 330.674V325.755Z" fill="white"/>
<path opacity="0.5" d="M660.013 315.224C661.438 315.224 662.594 314.069 662.594 312.644C662.594 311.218 661.438 310.063 660.013 310.063C658.588 310.063 657.432 311.218 657.432 312.644C657.432 314.069 658.588 315.224 660.013 315.224Z" fill="white"/>
<path d="M663.477 315.224C664.902 315.224 666.058 314.069 666.058 312.644C666.058 311.218 664.902 310.063 663.477 310.063C662.052 310.063 660.896 311.218 660.896 312.644C660.896 314.069 662.052 315.224 663.477 315.224Z" fill="#FF6B6B"/>
<path d="M626.897 312.159H620.385V313.648H626.897V312.159Z" fill="#FF6B6B"/>
<path d="M635.557 312.159H629.045V313.648H635.557V312.159Z" fill="#FF6B6B"/>
<path d="M641.515 312.159H637.705V313.648H641.515V312.159Z" fill="#FF6B6B"/>
<path d="M631.43 300.569C633.418 292.143 628.2 283.701 619.775 281.713C611.35 279.724 602.908 284.942 600.919 293.368C598.93 301.793 604.148 310.235 612.574 312.224C620.999 314.212 629.441 308.994 631.43 300.569Z" fill="#FF6B6B"/>
<path opacity="0.3" d="M628.8 299.948C630.446 292.975 626.127 285.988 619.154 284.343C612.181 282.697 605.194 287.015 603.549 293.988C601.903 300.962 606.221 307.948 613.194 309.594C620.167 311.24 627.154 306.921 628.8 299.948Z" fill="white"/>
<path d="M617.181 304.953V307.274H615.449V304.971C613.615 304.923 611.839 304.319 610.357 303.239L611.292 301.143C612.507 302.039 613.945 302.584 615.449 302.719V298.562C613.145 297.991 610.668 297.246 610.668 294.354C610.668 292.24 612.21 290.387 615.449 290.075V287.737H617.181V290.041C618.673 290.104 620.125 290.539 621.407 291.305L620.541 293.401C619.512 292.799 618.366 292.421 617.181 292.292V296.484C619.484 297.038 621.996 297.766 621.996 300.658C621.996 302.788 620.437 304.624 617.181 304.953ZM615.449 296.068V292.362C613.977 292.587 613.353 293.349 613.353 294.25C613.353 295.15 614.271 295.705 615.483 296.068H615.449ZM619.311 300.866C619.311 299.844 618.393 299.359 617.146 299.013V302.684C618.705 302.459 619.346 301.749 619.346 300.866H619.311Z" fill="#FF6B6B"/>
<path d="M638.761 365.452C626.22 365.455 614.034 361.287 604.121 353.605L584.533 364.101C584.37 364.191 584.183 364.226 583.999 364.201C583.815 364.176 583.644 364.092 583.511 363.963C583.376 363.833 583.287 363.663 583.259 363.478C583.231 363.293 583.265 363.105 583.355 362.941L593.851 343.335C587.177 334.686 583.139 324.296 582.222 313.41C581.304 302.525 583.545 291.605 588.677 281.961C593.809 272.317 601.613 264.358 611.154 259.038C620.695 253.717 631.568 251.262 642.47 251.965C653.371 252.668 663.839 256.501 672.617 263.003C681.395 269.506 688.112 278.402 691.962 288.626C695.812 298.849 696.631 309.966 694.322 320.643C692.013 331.321 686.674 341.106 678.944 348.825C673.67 354.104 667.405 358.29 660.51 361.144C653.615 363.997 646.224 365.461 638.761 365.452ZM604.121 351.717C604.315 351.714 604.504 351.775 604.658 351.891C615.241 360.241 628.52 364.417 641.977 363.625C655.434 362.833 668.132 357.129 677.662 347.595C685.175 340.092 690.359 330.577 692.59 320.196C694.821 309.815 694.003 299.01 690.236 289.083C686.469 279.156 679.912 270.529 671.356 264.242C662.8 257.954 652.608 254.274 642.009 253.644C631.41 253.014 620.854 255.461 611.613 260.691C602.373 265.921 594.841 273.71 589.924 283.122C585.008 292.533 582.916 303.164 583.902 313.737C584.887 324.309 588.908 334.371 595.479 342.711C595.581 342.846 595.644 343.006 595.659 343.175C595.674 343.343 595.642 343.513 595.565 343.664L586.143 361.226L603.706 351.821C603.851 351.752 604.013 351.722 604.173 351.735L604.121 351.717Z" fill="#FF6B6B"/>
<g opacity="0.7">
<path d="M638.761 365.452C626.22 365.455 614.034 361.287 604.121 353.605L584.533 364.101C584.37 364.191 584.183 364.226 583.999 364.201C583.815 364.176 583.644 364.092 583.511 363.963C583.376 363.833 583.287 363.663 583.259 363.478C583.231 363.293 583.265 363.105 583.355 362.941L593.851 343.335C587.177 334.686 583.139 324.296 582.222 313.41C581.304 302.525 583.545 291.605 588.677 281.961C593.809 272.317 601.613 264.358 611.154 259.038C620.695 253.717 631.568 251.262 642.47 251.965C653.371 252.668 663.839 256.501 672.617 263.003C681.395 269.506 688.112 278.402 691.962 288.626C695.812 298.849 696.631 309.966 694.322 320.643C692.013 331.321 686.674 341.106 678.944 348.825C673.67 354.104 667.405 358.29 660.51 361.144C653.615 363.997 646.224 365.461 638.761 365.452ZM604.121 351.717C604.315 351.714 604.504 351.775 604.658 351.891C615.241 360.241 628.52 364.417 641.977 363.625C655.434 362.833 668.132 357.129 677.662 347.595C685.175 340.092 690.359 330.577 692.59 320.196C694.821 309.815 694.003 299.01 690.236 289.083C686.469 279.156 679.912 270.529 671.356 264.242C662.8 257.954 652.608 254.274 642.009 253.644C631.41 253.014 620.854 255.461 611.613 260.691C602.373 265.921 594.841 273.71 589.924 283.122C585.008 292.533 582.916 303.164 583.902 313.737C584.887 324.309 588.908 334.371 595.479 342.711C595.581 342.846 595.644 343.006 595.659 343.175C595.674 343.343 595.642 343.513 595.565 343.664L586.143 361.226L603.706 351.821C603.851 351.752 604.013 351.722 604.173 351.735L604.121 351.717Z" fill="#FF6B6B"/>
</g>
<path d="M423.509 584.965C423.504 595.75 426.616 606.307 432.471 615.364C438.326 624.421 446.675 631.593 456.511 636.016C466.347 640.439 477.253 641.924 487.913 640.293C498.574 638.662 508.537 633.984 516.601 626.822C524.665 619.66 530.487 610.321 533.366 599.927C536.245 589.533 536.058 578.529 532.828 568.239C529.599 557.949 523.463 548.812 515.161 541.928C506.859 535.044 496.744 530.706 486.034 529.437L479.435 507.614L472.853 529.437C459.259 531.052 446.728 537.596 437.635 547.829C428.541 558.063 423.515 571.275 423.509 584.965Z" fill="#65BD75"/>
<path opacity="0.7" d="M423.509 584.965C423.504 595.75 426.616 606.307 432.471 615.364C438.326 624.421 446.675 631.593 456.511 636.016C466.347 640.439 477.253 641.924 487.913 640.293C498.574 638.662 508.537 633.984 516.601 626.822C524.665 619.66 530.487 610.321 533.366 599.927C536.245 589.533 536.058 578.529 532.828 568.239C529.599 557.949 523.463 548.812 515.161 541.928C506.859 535.044 496.744 530.706 486.034 529.437L479.435 507.614L472.853 529.437C459.259 531.052 446.728 537.596 437.635 547.829C428.541 558.063 423.515 571.275 423.509 584.965Z" fill="white"/>
<path d="M506.974 565.325H499.821C499.436 565.31 499.067 565.168 498.772 564.92C498.477 564.672 498.273 564.333 498.192 563.956L497.656 560.666C497.575 560.289 497.371 559.95 497.076 559.702C496.781 559.454 496.412 559.312 496.027 559.297H481.496C481.111 559.312 480.742 559.454 480.447 559.702C480.152 559.95 479.948 560.289 479.868 560.666L479.331 563.956C479.25 564.333 479.047 564.672 478.752 564.92C478.457 565.168 478.088 565.31 477.703 565.325H456.036C455.626 565.325 455.221 565.405 454.843 565.562C454.464 565.719 454.121 565.948 453.831 566.238C453.542 566.527 453.312 566.871 453.155 567.249C452.999 567.627 452.918 568.033 452.918 568.442V605.005C452.918 605.413 452.999 605.818 453.156 606.195C453.312 606.573 453.542 606.915 453.832 607.203C454.122 607.491 454.466 607.719 454.844 607.874C455.222 608.029 455.627 608.107 456.036 608.105H506.974C507.798 608.105 508.588 607.779 509.172 607.198C509.756 606.617 510.087 605.829 510.091 605.005V568.442C510.087 567.617 509.757 566.827 509.173 566.243C508.589 565.659 507.799 565.329 506.974 565.325Z" fill="#65BD75"/>
<path d="M507.355 568.442H455.828V605.005H507.355V568.442Z" fill="white"/>
<path d="M506.974 608.694H456.036C455.177 608.668 454.357 608.336 453.722 607.758C453.086 607.18 452.679 606.394 452.572 605.542L448.813 573.292C448.753 572.899 448.779 572.498 448.889 572.117C448.999 571.735 449.191 571.382 449.452 571.082C449.712 570.782 450.035 570.543 450.397 570.38C450.759 570.217 451.153 570.135 451.55 570.14H502.505C503.361 570.173 504.178 570.508 504.812 571.084C505.446 571.661 505.856 572.443 505.969 573.292L509.71 605.49C509.776 605.886 509.754 606.292 509.647 606.678C509.539 607.065 509.348 607.424 509.088 607.729C508.827 608.034 508.503 608.279 508.138 608.445C507.772 608.612 507.375 608.697 506.974 608.694Z" fill="#65BD75"/>
<path opacity="0.2" d="M506.974 608.694H456.036C455.177 608.668 454.357 608.336 453.722 607.758C453.086 607.18 452.679 606.394 452.572 605.542L448.813 573.292C448.753 572.899 448.779 572.498 448.889 572.117C448.999 571.735 449.191 571.382 449.452 571.082C449.712 570.782 450.035 570.543 450.397 570.38C450.759 570.217 451.153 570.135 451.55 570.14H502.505C503.361 570.173 504.178 570.508 504.812 571.084C505.446 571.661 505.856 572.443 505.969 573.292L509.71 605.49C509.776 605.886 509.754 606.292 509.647 606.678C509.539 607.065 509.348 607.424 509.088 607.729C508.827 608.034 508.503 608.279 508.138 608.445C507.772 608.612 507.375 608.697 506.974 608.694Z" fill="white"/>
<path d="M479.435 641.775C464.981 641.806 451.06 636.324 440.507 626.448C429.954 616.571 423.564 603.043 422.639 588.619C421.714 574.194 426.323 559.96 435.527 548.816C444.732 537.672 457.839 530.457 472.178 528.641L478.604 507.372C478.657 507.184 478.771 507.018 478.927 506.9C479.083 506.782 479.274 506.719 479.47 506.719C479.665 506.719 479.856 506.782 480.012 506.9C480.168 507.018 480.282 507.184 480.336 507.372L486.692 528.641C501.031 530.457 514.138 537.672 523.343 548.816C532.547 559.96 537.156 574.194 536.231 588.619C535.306 603.043 528.916 616.571 518.363 626.448C507.81 636.324 493.889 641.806 479.435 641.775ZM479.435 510.611L473.667 529.663C473.618 529.824 473.523 529.967 473.394 530.074C473.265 530.182 473.107 530.25 472.94 530.269C458.998 531.925 446.216 538.845 437.206 549.612C428.197 560.38 423.641 574.183 424.471 588.198C425.3 602.213 431.453 615.382 441.669 625.012C451.886 634.642 465.395 640.005 479.435 640.005C493.475 640.005 506.984 634.642 517.201 625.012C527.417 615.382 533.57 602.213 534.399 588.198C535.229 574.183 530.673 560.38 521.664 549.612C512.654 538.845 499.872 531.925 485.93 530.269C485.764 530.247 485.607 530.179 485.478 530.072C485.349 529.964 485.254 529.823 485.203 529.663L479.435 510.611Z" fill="#65BD75"/>
<g opacity="0.7">
<path d="M479.435 641.775C464.981 641.806 451.06 636.324 440.507 626.448C429.954 616.571 423.564 603.043 422.639 588.619C421.714 574.194 426.323 559.96 435.527 548.816C444.732 537.672 457.839 530.457 472.178 528.641L478.604 507.372C478.657 507.184 478.771 507.018 478.927 506.9C479.083 506.782 479.274 506.719 479.47 506.719C479.665 506.719 479.856 506.782 480.012 506.9C480.168 507.018 480.282 507.184 480.336 507.372L486.692 528.641C501.031 530.457 514.138 537.672 523.343 548.816C532.547 559.96 537.156 574.194 536.231 588.619C535.306 603.043 528.916 616.571 518.363 626.448C507.81 636.324 493.889 641.806 479.435 641.775ZM479.435 510.611L473.667 529.663C473.618 529.824 473.523 529.967 473.394 530.074C473.265 530.182 473.107 530.25 472.94 530.269C458.998 531.925 446.216 538.845 437.206 549.612C428.197 560.38 423.641 574.183 424.471 588.198C425.3 602.213 431.453 615.382 441.669 625.012C451.886 634.642 465.395 640.005 479.435 640.005C493.475 640.005 506.984 634.642 517.201 625.012C527.417 615.382 533.57 602.213 534.399 588.198C535.229 574.183 530.673 560.38 521.664 549.612C512.654 538.845 499.872 531.925 485.93 530.269C485.764 530.247 485.607 530.179 485.478 530.072C485.349 529.964 485.254 529.823 485.203 529.663L479.435 510.611Z" fill="#65BD75"/>
</g>
<path d="M535.379 231.586C535.38 220.802 532.265 210.248 526.408 201.194C520.552 192.139 512.203 184.971 502.367 180.55C492.531 176.13 481.628 174.647 470.968 176.279C460.309 177.911 450.349 182.589 442.286 189.749C434.223 196.91 428.402 206.248 425.523 216.64C422.643 227.032 422.829 238.035 426.056 248.324C429.284 258.613 435.417 267.749 443.716 274.634C452.016 281.519 462.128 285.859 472.836 287.131L479.418 308.937L486.017 287.131C499.617 285.52 512.154 278.975 521.252 268.738C530.35 258.501 535.376 245.281 535.379 231.586Z" fill="#65BD75"/>
<path opacity="0.7" d="M535.379 231.586C535.38 220.802 532.265 210.248 526.408 201.194C520.552 192.139 512.203 184.971 502.367 180.55C492.531 176.13 481.628 174.647 470.968 176.279C460.309 177.911 450.349 182.589 442.286 189.749C434.223 196.91 428.402 206.248 425.523 216.64C422.643 227.032 422.829 238.035 426.056 248.324C429.284 258.613 435.417 267.749 443.716 274.634C452.016 281.519 462.128 285.859 472.836 287.131L479.418 308.937L486.017 287.131C499.617 285.52 512.154 278.975 521.252 268.738C530.35 258.501 535.376 245.281 535.379 231.586Z" fill="white"/>
<path d="M467.969 260.753C467.885 260.744 467.803 260.719 467.728 260.678C467.654 260.638 467.588 260.583 467.535 260.517C467.482 260.451 467.442 260.375 467.419 260.293C467.395 260.212 467.388 260.127 467.398 260.042C468.16 251.608 472.697 244.801 476.058 239.847C478.274 236.522 480.006 233.906 479.66 232.348C479.584 232.097 479.457 231.864 479.288 231.664C479.118 231.465 478.908 231.302 478.673 231.187C477.969 230.856 477.194 230.704 476.417 230.746C475.64 230.789 474.885 231.024 474.222 231.43C469.026 233.976 462.825 243.051 461.405 254.829C461.395 254.913 461.368 254.995 461.326 255.068C461.285 255.142 461.229 255.207 461.162 255.259C461.095 255.312 461.019 255.35 460.937 255.373C460.856 255.396 460.77 255.402 460.686 255.392C460.602 255.382 460.521 255.355 460.447 255.313C460.373 255.272 460.308 255.216 460.256 255.149C460.203 255.082 460.165 255.006 460.142 254.924C460.119 254.843 460.113 254.757 460.123 254.673C461.595 242.445 468.194 232.954 473.65 230.252C474.501 229.736 475.471 229.447 476.466 229.413C477.461 229.38 478.447 229.603 479.331 230.061C479.724 230.264 480.069 230.548 480.344 230.895C480.619 231.241 480.817 231.642 480.924 232.071C481.409 234.166 479.608 236.851 477.149 240.557C473.91 245.407 469.476 252.058 468.731 260.164C468.725 260.255 468.7 260.343 468.658 260.424C468.615 260.504 468.556 260.575 468.483 260.631C468.411 260.686 468.328 260.726 468.239 260.747C468.151 260.768 468.059 260.77 467.969 260.753Z" fill="#65BD75"/>
<path d="M470.948 261.948C470.862 261.943 470.778 261.922 470.701 261.884C470.624 261.847 470.555 261.794 470.498 261.73C470.442 261.665 470.399 261.59 470.372 261.508C470.345 261.426 470.335 261.34 470.342 261.255C470.913 253.288 475.538 246.793 479.14 241.579C481.981 237.526 484.423 234.028 483.903 231.36C483.712 230.673 483.381 230.032 482.931 229.477C482.481 228.923 481.922 228.467 481.288 228.139C480.099 227.344 478.72 226.88 477.292 226.795C475.865 226.71 474.44 227.006 473.165 227.654C466.618 230.65 460.504 241.077 458.928 251.902C458.902 252.074 458.81 252.229 458.67 252.333C458.53 252.437 458.355 252.481 458.183 252.456C458.014 252.426 457.864 252.332 457.763 252.193C457.663 252.054 457.621 251.881 457.646 251.711C459.274 240.471 465.717 229.611 472.628 226.459C474.1 225.728 475.738 225.394 477.378 225.491C479.019 225.588 480.606 226.113 481.981 227.013C482.767 227.435 483.457 228.016 484.006 228.72C484.555 229.424 484.95 230.235 485.168 231.101C485.809 234.305 483.332 237.838 480.197 242.307C476.629 247.381 472.195 253.721 471.641 261.359C471.634 261.443 471.611 261.525 471.573 261.6C471.534 261.676 471.481 261.743 471.417 261.797C471.353 261.852 471.278 261.894 471.198 261.919C471.117 261.945 471.032 261.955 470.948 261.948Z" fill="#65BD75"/>
<path d="M465.613 259.454C465.445 259.436 465.29 259.354 465.18 259.225C465.071 259.096 465.015 258.93 465.025 258.761C465.665 250.811 469.909 243.848 472.438 239.709C473.226 238.548 473.899 237.312 474.447 236.02C471.71 236.314 465.059 246.412 463.708 257.046C463.7 257.132 463.674 257.216 463.632 257.291C463.591 257.367 463.534 257.434 463.467 257.487C463.399 257.54 463.32 257.58 463.237 257.602C463.154 257.624 463.066 257.63 462.981 257.618C462.812 257.592 462.66 257.502 462.557 257.366C462.453 257.23 462.407 257.06 462.427 256.89C463.743 246.36 470.723 234.703 474.447 234.703C474.672 234.681 474.899 234.722 475.101 234.823C475.303 234.925 475.473 235.081 475.59 235.275C476.092 236.193 475.243 237.596 473.529 240.384C470.896 244.714 466.913 251.244 466.306 258.882C466.285 259.047 466.201 259.198 466.073 259.304C465.944 259.41 465.78 259.464 465.613 259.454Z" fill="#65BD75"/>
<path d="M474.966 262.918C474.881 262.916 474.798 262.896 474.721 262.861C474.643 262.825 474.574 262.774 474.518 262.711C474.461 262.648 474.417 262.573 474.39 262.493C474.363 262.412 474.353 262.327 474.36 262.242C474.707 255.678 478.621 249.443 482.068 243.952C487.125 235.899 491.109 229.525 484.215 224.277C482.772 223.229 481.075 222.586 479.301 222.412C477.526 222.239 475.737 222.541 474.118 223.29C465.995 226.407 458.53 236.695 456.521 247.745C456.483 247.913 456.384 248.059 456.242 248.156C456.101 248.252 455.928 248.291 455.759 248.265C455.589 248.231 455.44 248.133 455.343 247.99C455.246 247.848 455.208 247.673 455.239 247.503C457.404 236.037 465.146 225.351 473.65 222.077C475.473 221.238 477.488 220.905 479.484 221.112C481.48 221.319 483.383 222.059 484.995 223.255C492.841 229.213 488.147 236.713 483.159 244.645C479.695 250.257 475.988 256.076 475.659 262.312C475.646 262.483 475.566 262.643 475.436 262.756C475.307 262.869 475.138 262.927 474.966 262.918Z" fill="#65BD75"/>
<path d="M481.063 263.126C480.931 263.121 480.803 263.077 480.695 263C480.587 262.923 480.504 262.816 480.457 262.693C478.378 257.202 480.994 249.044 488.199 238.445C493.066 231.309 501.05 232.4 504.254 233.249C504.336 233.269 504.413 233.305 504.481 233.356C504.549 233.406 504.606 233.469 504.65 233.541C504.693 233.614 504.722 233.694 504.734 233.777C504.747 233.861 504.743 233.946 504.722 234.028C504.702 234.11 504.665 234.187 504.615 234.255C504.565 234.323 504.502 234.38 504.429 234.423C504.357 234.467 504.277 234.495 504.193 234.508C504.11 234.52 504.025 234.516 503.943 234.496C500.998 233.768 493.672 232.764 489.273 239.224C482.345 249.304 479.781 257.271 481.669 262.277C481.702 262.356 481.718 262.441 481.717 262.527C481.715 262.613 481.696 262.698 481.66 262.776C481.624 262.854 481.573 262.924 481.509 262.981C481.445 263.038 481.37 263.081 481.288 263.108C481.215 263.132 481.138 263.138 481.063 263.126Z" fill="#65BD75"/>
<path d="M486.519 262.052C486.414 262.052 486.31 262.027 486.217 261.978C486.123 261.93 486.043 261.86 485.982 261.775C481.357 255.158 485.982 244.455 493.17 238.67C494.661 237.304 496.536 236.431 498.541 236.167C500.545 235.904 502.582 236.264 504.376 237.197C504.466 237.227 504.548 237.276 504.618 237.34C504.687 237.405 504.742 237.484 504.778 237.571C504.814 237.659 504.831 237.754 504.827 237.848C504.824 237.943 504.799 238.036 504.756 238.12C504.714 238.205 504.653 238.279 504.579 238.338C504.504 238.397 504.418 238.439 504.326 238.462C504.234 238.484 504.138 238.487 504.045 238.469C503.952 238.451 503.864 238.413 503.787 238.358C502.216 237.554 500.437 237.249 498.688 237.485C496.939 237.72 495.304 238.484 494.001 239.674C487.385 245.026 482.899 255.089 487.073 261.03C487.123 261.099 487.158 261.177 487.177 261.26C487.196 261.343 487.198 261.429 487.184 261.513C487.169 261.597 487.138 261.677 487.092 261.748C487.047 261.82 486.987 261.882 486.917 261.93C486.8 262.011 486.661 262.053 486.519 262.052Z" fill="#65BD75"/>
<path d="M489.948 260.666C489.833 260.665 489.72 260.634 489.62 260.576C489.519 260.519 489.436 260.436 489.377 260.337C488.67 258.866 488.279 257.263 488.228 255.631C488.177 254 488.468 252.376 489.082 250.863C490.554 246.585 493.88 242.446 496.79 241.199C497.942 240.729 499.188 240.538 500.428 240.64C501.668 240.742 502.866 241.136 503.925 241.788C503.999 241.83 504.064 241.886 504.116 241.953C504.169 242.02 504.207 242.097 504.23 242.179C504.252 242.261 504.258 242.347 504.248 242.431C504.237 242.515 504.21 242.597 504.168 242.671C504.126 242.745 504.07 242.81 504.002 242.862C503.935 242.914 503.858 242.953 503.776 242.975C503.694 242.998 503.609 243.004 503.524 242.993C503.44 242.983 503.358 242.955 503.285 242.913C502.4 242.353 501.395 242.013 500.352 241.922C499.309 241.832 498.259 241.994 497.292 242.394C495.04 243.364 491.819 246.949 490.364 251.279C489.807 252.621 489.537 254.065 489.573 255.518C489.609 256.971 489.949 258.4 490.572 259.714C490.652 259.866 490.671 260.043 490.622 260.208C490.573 260.374 490.462 260.513 490.312 260.597C490.199 260.654 490.074 260.678 489.948 260.666Z" fill="#65BD75"/>
<path d="M494.278 257.964C494.185 257.968 494.093 257.949 494.009 257.91C493.925 257.871 493.851 257.812 493.793 257.739C491.472 255.176 492.165 250.811 495.525 247.053C496.333 245.914 497.548 245.13 498.918 244.862C500.289 244.594 501.709 244.864 502.886 245.615C502.96 245.658 503.023 245.715 503.074 245.783C503.125 245.85 503.162 245.928 503.183 246.01C503.204 246.092 503.209 246.177 503.196 246.261C503.184 246.345 503.155 246.426 503.112 246.498C503.022 246.647 502.876 246.755 502.708 246.797C502.539 246.839 502.36 246.813 502.211 246.724C501.292 246.132 500.178 245.925 499.108 246.149C498.038 246.372 497.1 247.008 496.495 247.919C493.153 251.66 493.274 255.193 494.763 256.873C494.883 256.996 494.95 257.161 494.95 257.332C494.95 257.504 494.883 257.668 494.763 257.791C494.7 257.854 494.624 257.902 494.54 257.932C494.456 257.962 494.367 257.973 494.278 257.964Z" fill="#65BD75"/>
<path d="M497.361 255.158C497.239 255.158 497.119 255.124 497.015 255.06C496.911 254.996 496.827 254.904 496.772 254.795C496.459 254.168 496.328 253.466 496.393 252.768C496.458 252.07 496.717 251.405 497.14 250.846C497.564 250.288 498.135 249.859 498.789 249.608C499.443 249.357 500.154 249.294 500.842 249.426C501.005 249.478 501.141 249.592 501.221 249.743C501.301 249.893 501.32 250.07 501.273 250.234C501.225 250.398 501.116 250.537 500.968 250.623C500.82 250.708 500.644 250.732 500.479 250.69C500.108 250.611 499.722 250.63 499.361 250.746C498.999 250.861 498.674 251.069 498.418 251.348C497.996 251.683 497.714 252.164 497.628 252.695C497.542 253.227 497.656 253.772 497.95 254.223C497.988 254.3 498.01 254.384 498.014 254.47C498.019 254.556 498.007 254.641 497.977 254.722C497.948 254.803 497.903 254.877 497.845 254.94C497.787 255.003 497.717 255.054 497.638 255.089C497.554 255.136 497.458 255.16 497.361 255.158Z" fill="#65BD75"/>
<path d="M453.888 241.51C453.71 241.489 453.547 241.403 453.429 241.269C453.31 241.135 453.246 240.962 453.247 240.783C455.002 233.635 459.191 227.321 465.094 222.926C468.652 220.296 472.471 218.038 476.49 216.189C479.329 215.091 481.916 213.43 484.094 211.304C485.432 209.803 486.296 207.94 486.576 205.949C486.857 203.957 486.541 201.928 485.67 200.116C485.599 199.959 485.591 199.781 485.649 199.619C485.708 199.457 485.827 199.325 485.982 199.25C486.141 199.184 486.319 199.181 486.48 199.242C486.641 199.303 486.773 199.424 486.848 199.579C487.831 201.615 488.191 203.896 487.883 206.136C487.575 208.376 486.612 210.475 485.116 212.17C482.835 214.435 480.111 216.204 477.114 217.366C473.166 219.18 469.417 221.397 465.925 223.983C460.304 228.167 456.298 234.162 454.581 240.956C454.58 241.041 454.561 241.125 454.523 241.201C454.486 241.278 454.433 241.345 454.366 241.398C454.3 241.451 454.222 241.489 454.14 241.508C454.057 241.528 453.971 241.528 453.888 241.51Z" fill="#65BD75"/>
<path d="M453.663 231.17C453.566 231.194 453.465 231.194 453.368 231.17C453.293 231.131 453.226 231.079 453.171 231.014C453.117 230.95 453.075 230.875 453.05 230.795C453.024 230.714 453.014 230.629 453.021 230.545C453.028 230.461 453.052 230.379 453.091 230.304C456.555 223.376 463.778 219.392 470.134 215.876C476.075 212.603 481.202 209.78 482.102 205.38C482.367 204.299 482.346 203.167 482.042 202.095C481.739 201.024 481.163 200.049 480.37 199.267C480.309 199.207 480.26 199.135 480.227 199.057C480.194 198.978 480.177 198.893 480.177 198.808C480.177 198.722 480.194 198.637 480.227 198.558C480.26 198.48 480.309 198.408 480.37 198.349C480.493 198.229 480.658 198.162 480.829 198.162C481.001 198.162 481.165 198.229 481.288 198.349C482.213 199.294 482.884 200.459 483.239 201.734C483.593 203.009 483.619 204.353 483.315 205.64C482.293 210.594 476.906 213.573 470.688 217.002C464.47 220.432 457.473 224.294 454.182 230.858C454.127 230.948 454.051 231.023 453.961 231.077C453.87 231.132 453.768 231.163 453.663 231.17Z" fill="#65BD75"/>
<path d="M453.663 225.455C453.55 225.488 453.43 225.488 453.316 225.455C453.17 225.362 453.067 225.216 453.028 225.047C452.989 224.879 453.018 224.701 453.109 224.554C456.018 219.93 461.214 216.777 466.237 213.729C471.26 210.681 476.335 207.598 476.976 203.649C477.109 202.812 476.95 201.955 476.523 201.223C476.097 200.49 475.431 199.928 474.637 199.631C474.49 199.544 474.382 199.404 474.334 199.24C474.285 199.076 474.301 198.9 474.378 198.747C474.418 198.671 474.472 198.604 474.539 198.55C474.605 198.495 474.682 198.455 474.764 198.43C474.847 198.406 474.933 198.399 475.018 198.409C475.104 198.418 475.186 198.445 475.261 198.488C476.29 198.917 477.145 199.679 477.689 200.653C478.232 201.627 478.433 202.755 478.257 203.857C477.513 208.395 472.368 211.53 466.913 214.838C462.011 217.817 456.954 220.882 454.217 225.23C454.15 225.309 454.064 225.372 453.968 225.411C453.871 225.45 453.767 225.465 453.663 225.455Z" fill="#65BD75"/>
<path d="M454.061 220.068C453.937 220.066 453.816 220.03 453.712 219.963C453.608 219.896 453.525 219.801 453.473 219.689C453.42 219.576 453.401 219.452 453.416 219.329C453.431 219.206 453.481 219.09 453.559 218.994C456.332 215.991 459.537 213.417 463.067 211.356C467.172 208.671 470.723 206.35 471 203.597C471.085 203.049 470.987 202.489 470.72 202.004C470.454 201.518 470.035 201.135 469.528 200.912C469.378 200.828 469.266 200.688 469.218 200.523C469.169 200.358 469.187 200.181 469.268 200.029C469.306 199.953 469.359 199.886 469.424 199.832C469.489 199.778 469.564 199.737 469.645 199.713C469.726 199.689 469.811 199.681 469.895 199.691C469.979 199.7 470.061 199.727 470.134 199.769C470.868 200.11 471.473 200.678 471.86 201.389C472.246 202.1 472.394 202.916 472.282 203.718C471.953 207.095 468.177 209.572 463.778 212.378C460.367 214.387 457.263 216.878 454.563 219.773C454.509 219.859 454.435 219.93 454.348 219.981C454.26 220.032 454.162 220.062 454.061 220.068Z" fill="#65BD75"/>
<path d="M456.815 212.309C456.721 212.306 456.63 212.283 456.546 212.241C456.462 212.199 456.388 212.139 456.33 212.066C456.269 212.008 456.221 211.938 456.188 211.861C456.155 211.783 456.138 211.7 456.138 211.616C456.138 211.532 456.155 211.448 456.188 211.371C456.221 211.294 456.269 211.224 456.33 211.165C457.938 209.884 459.68 208.781 461.526 207.875C463.258 206.991 464.644 206.143 464.748 205.484C464.806 205.128 464.778 204.763 464.666 204.42C464.555 204.076 464.363 203.764 464.107 203.51C463.987 203.387 463.92 203.222 463.92 203.051C463.92 202.88 463.987 202.715 464.107 202.592C464.167 202.531 464.238 202.482 464.317 202.449C464.396 202.416 464.48 202.398 464.566 202.398C464.651 202.398 464.736 202.416 464.815 202.449C464.894 202.482 464.965 202.531 465.025 202.592C465.409 202.989 465.696 203.468 465.865 203.994C466.033 204.52 466.077 205.077 465.995 205.623C465.822 207.026 464.176 207.892 462.098 209.087C460.339 209.945 458.678 210.99 457.144 212.205C457.045 212.266 456.932 212.302 456.815 212.309Z" fill="#65BD75"/>
<path d="M503.614 230.841C496.097 230.841 490.243 227.793 487.905 222.649C485.566 217.505 487.801 213.989 490.277 209.78C491.513 207.595 491.965 205.053 491.559 202.575C491.559 202.4 491.624 202.231 491.743 202.103C491.862 201.974 492.025 201.895 492.2 201.882C492.282 201.875 492.365 201.885 492.444 201.911C492.522 201.937 492.595 201.979 492.656 202.034C492.718 202.089 492.768 202.157 492.802 202.232C492.837 202.307 492.856 202.388 492.858 202.471C493.292 205.204 492.779 208.003 491.403 210.404C488.926 214.664 487.125 217.747 489.1 222.095C491.265 226.875 496.859 229.629 504.081 229.525C504.167 229.523 504.252 229.537 504.332 229.569C504.412 229.6 504.484 229.647 504.546 229.706C504.607 229.766 504.656 229.837 504.689 229.916C504.722 229.995 504.74 230.08 504.74 230.166C504.74 230.337 504.673 230.502 504.553 230.625C504.433 230.748 504.27 230.819 504.099 230.824L503.614 230.841Z" fill="#65BD75"/>
<path d="M502.574 226.442C498.331 226.442 495.023 224.814 493.395 221.817C492.691 220.561 492.365 219.128 492.454 217.691C492.543 216.253 493.044 214.872 493.897 213.712C495.48 211.713 496.481 209.315 496.79 206.784C496.815 206.614 496.905 206.46 497.04 206.354C497.175 206.248 497.346 206.197 497.517 206.212C497.601 206.221 497.683 206.246 497.758 206.286C497.832 206.327 497.898 206.382 497.951 206.448C498.004 206.514 498.044 206.59 498.067 206.671C498.091 206.753 498.098 206.838 498.089 206.922C497.757 209.693 496.666 212.319 494.936 214.508C494.233 215.469 493.822 216.613 493.751 217.801C493.681 218.99 493.954 220.174 494.538 221.211C496.114 224.086 499.561 225.507 504.029 225.091C504.2 225.081 504.369 225.136 504.501 225.245C504.632 225.355 504.718 225.51 504.739 225.68C504.749 225.765 504.741 225.852 504.717 225.934C504.692 226.017 504.651 226.094 504.596 226.16C504.541 226.226 504.473 226.281 504.397 226.32C504.32 226.36 504.236 226.383 504.151 226.39C503.614 226.425 503.094 226.442 502.574 226.442Z" fill="#65BD75"/>
<path d="M502.142 222.822C501.352 222.877 500.56 222.751 499.826 222.453C499.093 222.155 498.437 221.694 497.909 221.104C497.381 220.514 496.995 219.812 496.78 219.05C496.565 218.288 496.527 217.487 496.668 216.708C497.174 214.786 498.22 213.048 499.682 211.703L500.288 210.975C500.403 210.85 500.562 210.775 500.731 210.764C500.901 210.754 501.067 210.809 501.197 210.919C501.326 211.028 501.409 211.183 501.427 211.352C501.444 211.521 501.397 211.69 501.293 211.824L500.652 212.551C499.4 213.73 498.47 215.208 497.95 216.847C497.848 217.513 497.905 218.195 498.116 218.836C498.326 219.477 498.685 220.059 499.163 220.536C499.83 221.029 500.604 221.359 501.423 221.497C502.241 221.636 503.081 221.579 503.874 221.332C504.043 221.301 504.218 221.335 504.363 221.429C504.508 221.522 504.612 221.667 504.653 221.835C504.671 221.92 504.671 222.008 504.655 222.094C504.638 222.179 504.604 222.26 504.556 222.333C504.508 222.405 504.446 222.468 504.373 222.516C504.3 222.564 504.219 222.598 504.133 222.614C503.477 222.745 502.811 222.814 502.142 222.822Z" fill="#65BD75"/>
<path d="M503.492 219.029H503.267C503.009 218.948 502.77 218.814 502.567 218.635C502.364 218.456 502.202 218.236 502.09 217.989C501.967 217.639 501.92 217.267 501.95 216.897C501.979 216.528 502.086 216.168 502.263 215.842C502.292 215.755 502.339 215.675 502.401 215.607C502.463 215.54 502.539 215.486 502.623 215.449C502.707 215.412 502.798 215.394 502.89 215.394C502.982 215.395 503.072 215.414 503.156 215.452C503.24 215.489 503.315 215.544 503.376 215.612C503.437 215.681 503.484 215.761 503.512 215.848C503.541 215.936 503.55 216.028 503.541 216.119C503.532 216.211 503.503 216.299 503.458 216.379C503.277 216.712 503.21 217.095 503.267 217.47C503.312 217.552 503.374 217.624 503.448 217.681C503.523 217.738 503.609 217.778 503.7 217.799C503.782 217.826 503.857 217.869 503.922 217.926C503.986 217.983 504.039 218.053 504.076 218.13C504.113 218.208 504.134 218.292 504.138 218.378C504.142 218.464 504.129 218.55 504.099 218.63C504.048 218.749 503.963 218.85 503.855 218.921C503.748 218.991 503.621 219.029 503.492 219.029Z" fill="#65BD75"/>
<path d="M484.787 220.917C484.612 220.916 484.445 220.848 484.319 220.726C483.297 219.859 482.034 219.327 480.699 219.202C480.56 219.181 480.431 219.116 480.331 219.016C480.231 218.916 480.166 218.787 480.145 218.648C480.127 218.507 480.157 218.364 480.229 218.242C480.301 218.12 480.412 218.025 480.544 217.972C481.824 217.438 483.02 216.721 484.094 215.842C484.195 215.749 484.32 215.687 484.455 215.663C484.59 215.638 484.729 215.652 484.856 215.703C484.978 215.766 485.078 215.864 485.143 215.984C485.208 216.105 485.235 216.242 485.22 216.379C485.051 217.597 485.11 218.836 485.393 220.033C485.445 220.173 485.447 220.327 485.4 220.468C485.353 220.61 485.259 220.731 485.133 220.813C485.031 220.881 484.91 220.917 484.787 220.917ZM482.709 218.353C483.103 218.482 483.485 218.644 483.852 218.838C483.852 218.44 483.852 218.059 483.852 217.695C483.482 217.934 483.101 218.154 482.709 218.353Z" fill="#65BD75"/>
<path d="M490.641 233.318C490.561 233.319 490.481 233.304 490.407 233.274C490.333 233.245 490.265 233.201 490.208 233.145C490.103 233.055 490.031 232.933 490.003 232.799C489.975 232.664 489.992 232.524 490.052 232.4C490.414 231.529 490.51 230.571 490.329 229.646C490.295 229.512 490.305 229.37 490.358 229.242C490.411 229.114 490.504 229.006 490.624 228.936C490.735 228.85 490.872 228.804 491.013 228.804C491.154 228.804 491.291 228.85 491.403 228.936C492.306 229.594 493.321 230.081 494.399 230.373C494.539 230.416 494.661 230.503 494.746 230.622C494.831 230.741 494.873 230.885 494.867 231.032C494.865 231.177 494.812 231.318 494.717 231.429C494.622 231.539 494.491 231.613 494.347 231.638C493.165 232.01 492.031 232.521 490.97 233.162C490.876 233.242 490.762 233.295 490.641 233.318ZM491.715 230.772C491.731 230.973 491.731 231.176 491.715 231.378L492.373 231.066L491.715 230.772Z" fill="#65BD75"/>
<path d="M479.435 309.803C479.25 309.804 479.069 309.746 478.919 309.637C478.77 309.528 478.659 309.373 478.604 309.197L472.178 287.91C457.863 286.066 444.788 278.841 435.609 267.703C426.43 256.566 421.835 242.351 422.759 227.948C423.683 213.545 430.056 200.033 440.584 190.16C451.111 180.287 465.002 174.792 479.435 174.792C493.868 174.792 507.759 180.287 518.286 190.16C528.814 200.033 535.187 213.545 536.111 227.948C537.035 242.351 532.44 256.566 523.261 267.703C514.082 278.841 501.007 286.066 486.692 287.91L480.266 309.197C480.211 309.373 480.1 309.528 479.95 309.637C479.801 309.746 479.62 309.804 479.435 309.803ZM479.435 176.526C465.39 176.518 451.874 181.878 441.651 191.509C431.428 201.139 425.272 214.313 424.442 228.333C423.612 242.353 428.172 256.16 437.187 266.929C446.202 277.699 458.992 284.616 472.94 286.265C473.108 286.28 473.268 286.346 473.398 286.454C473.528 286.563 473.622 286.708 473.667 286.871L479.435 305.923L485.203 286.871C485.25 286.709 485.344 286.565 485.474 286.457C485.603 286.349 485.762 286.282 485.93 286.265C499.877 284.616 512.667 277.699 521.683 266.929C530.698 256.16 535.257 242.353 534.428 228.333C533.598 214.313 527.442 201.139 517.219 191.509C506.996 181.878 493.48 176.518 479.435 176.526Z" fill="#65BD75"/>
<g opacity="0.7">
<path d="M479.435 309.803C479.25 309.804 479.069 309.746 478.919 309.637C478.77 309.528 478.659 309.373 478.604 309.197L472.178 287.91C457.863 286.066 444.788 278.841 435.609 267.703C426.43 256.566 421.835 242.351 422.759 227.948C423.683 213.545 430.056 200.033 440.584 190.16C451.111 180.287 465.002 174.792 479.435 174.792C493.868 174.792 507.759 180.287 518.286 190.16C528.814 200.033 535.187 213.545 536.111 227.948C537.035 242.351 532.44 256.566 523.261 267.703C514.082 278.841 501.007 286.066 486.692 287.91L480.266 309.197C480.211 309.373 480.1 309.528 479.95 309.637C479.801 309.746 479.62 309.804 479.435 309.803ZM479.435 176.526C465.39 176.518 451.874 181.878 441.651 191.509C431.428 201.139 425.272 214.313 424.442 228.333C423.612 242.353 428.172 256.16 437.187 266.929C446.202 277.699 458.992 284.616 472.94 286.265C473.108 286.28 473.268 286.346 473.398 286.454C473.528 286.563 473.622 286.708 473.667 286.871L479.435 305.923L485.203 286.871C485.25 286.709 485.344 286.565 485.474 286.457C485.603 286.349 485.762 286.282 485.93 286.265C499.877 284.616 512.667 277.699 521.683 266.929C530.698 256.16 535.257 242.353 534.428 228.333C533.598 214.313 527.442 201.139 517.219 191.509C506.996 181.878 493.48 176.518 479.435 176.526Z" fill="#65BD75"/>
</g>
<path d="M266.548 458.4C257.463 464.209 250.25 472.52 245.779 482.333C241.307 492.145 239.766 503.041 241.342 513.709C242.918 524.376 247.544 534.361 254.662 542.461C261.78 550.562 271.088 556.432 281.464 559.366C291.841 562.3 302.844 562.172 313.15 558.998C323.456 555.824 332.625 549.74 339.553 541.477C346.482 533.214 350.874 523.124 352.203 512.423C353.531 501.722 351.738 490.864 347.04 481.158L361.863 463.864L339.938 470.055C331.252 459.466 318.983 452.43 305.457 450.282C291.931 448.134 278.087 451.023 266.548 458.4Z" fill="#FF6B6B"/>
<path opacity="0.7" d="M266.548 458.4C257.463 464.209 250.25 472.52 245.779 482.333C241.307 492.145 239.766 503.041 241.342 513.709C242.918 524.376 247.544 534.361 254.662 542.461C261.78 550.562 271.088 556.432 281.464 559.366C291.841 562.3 302.844 562.172 313.15 558.998C323.456 555.824 332.625 549.74 339.553 541.477C346.482 533.214 350.874 523.124 352.203 512.423C353.531 501.722 351.738 490.864 347.04 481.158L361.863 463.864L339.938 470.055C331.252 459.466 318.983 452.43 305.457 450.282C291.931 448.134 278.087 451.023 266.548 458.4Z" fill="white"/>
<path d="M327.44 499.472C327.479 499.547 327.501 499.63 327.507 499.714C327.513 499.799 327.503 499.884 327.476 499.964C327.449 500.045 327.406 500.119 327.35 500.183C327.294 500.246 327.226 500.298 327.15 500.336C319.634 504.239 311.455 504.084 305.471 503.922C301.475 503.846 298.339 503.796 297.212 504.928C297.042 505.127 296.914 505.359 296.837 505.61C296.761 505.861 296.737 506.125 296.767 506.385C296.866 507.157 297.157 507.892 297.611 508.523C298.065 509.155 298.669 509.664 299.369 510.004C304.314 513.01 315.3 513.343 325.987 508.193C326.064 508.156 326.147 508.135 326.231 508.13C326.316 508.126 326.401 508.138 326.481 508.166C326.561 508.194 326.634 508.237 326.698 508.294C326.761 508.351 326.812 508.419 326.849 508.495C326.886 508.572 326.907 508.655 326.912 508.739C326.916 508.824 326.904 508.909 326.876 508.989C326.848 509.069 326.805 509.142 326.748 509.206C326.691 509.269 326.623 509.32 326.547 509.357C315.452 514.705 303.901 514.26 298.685 511.12C297.791 510.682 297.026 510.02 296.462 509.2C295.897 508.38 295.554 507.429 295.464 506.437C295.423 505.997 295.476 505.553 295.62 505.135C295.763 504.717 295.995 504.334 296.297 504.012C297.802 502.474 301.034 502.545 305.481 502.62C311.312 502.736 319.304 502.887 326.534 499.147C326.613 499.103 326.702 499.076 326.792 499.069C326.883 499.061 326.975 499.073 327.06 499.104C327.146 499.135 327.225 499.183 327.29 499.247C327.356 499.31 327.407 499.387 327.44 499.472Z" fill="#FF6B6B"/>
<path d="M326.842 496.318C326.885 496.393 326.912 496.475 326.922 496.561C326.932 496.646 326.925 496.732 326.901 496.815C326.877 496.897 326.836 496.974 326.782 497.041C326.728 497.107 326.661 497.162 326.585 497.202C319.565 501.014 311.602 500.618 305.269 500.392C300.324 500.183 296.061 500.011 294.094 501.886C293.618 502.417 293.256 503.042 293.032 503.719C292.807 504.397 292.725 505.114 292.79 505.825C292.761 507.255 293.113 508.666 293.81 509.915C294.508 511.164 295.525 512.204 296.758 512.929C302.81 516.83 314.888 516.362 324.856 511.857C325.015 511.786 325.195 511.781 325.358 511.842C325.521 511.904 325.652 512.028 325.724 512.186C325.79 512.344 325.792 512.522 325.729 512.681C325.666 512.841 325.543 512.969 325.386 513.04C315.04 517.725 302.42 518.148 296.04 514.025C294.631 513.179 293.468 511.98 292.666 510.545C291.863 509.111 291.451 507.491 291.468 505.848C291.399 504.958 291.518 504.063 291.815 503.222C292.112 502.38 292.582 501.61 293.194 500.961C295.548 498.694 299.859 498.877 305.313 499.11C311.51 499.381 319.239 499.701 325.973 496.052C326.047 496.012 326.129 495.988 326.213 495.979C326.297 495.971 326.382 495.98 326.463 496.004C326.544 496.029 326.619 496.07 326.684 496.124C326.749 496.177 326.803 496.244 326.842 496.318Z" fill="#FF6B6B"/>
<path d="M327.615 502.156C327.691 502.307 327.706 502.482 327.656 502.644C327.607 502.806 327.497 502.942 327.349 503.025C320.307 506.769 312.155 506.946 307.305 507.046C305.902 507.007 304.498 507.106 303.115 507.341C304.837 509.488 316.927 509.65 326.614 505.058C326.691 505.019 326.775 504.996 326.861 504.99C326.947 504.984 327.034 504.996 327.116 505.024C327.197 505.053 327.272 505.097 327.336 505.156C327.4 505.214 327.451 505.284 327.487 505.363C327.556 505.519 327.562 505.696 327.504 505.856C327.445 506.016 327.327 506.147 327.173 506.222C317.593 510.787 304.012 511.188 302.006 508.051C301.865 507.873 301.778 507.66 301.754 507.435C301.73 507.21 301.771 506.982 301.871 506.78C302.374 505.862 304.013 505.821 307.286 505.763C312.352 505.648 319.999 505.485 326.761 501.88C326.911 501.809 327.084 501.798 327.242 501.85C327.401 501.901 327.534 502.01 327.615 502.156Z" fill="#FF6B6B"/>
<path d="M325.494 492.41C325.538 492.483 325.567 492.564 325.578 492.648C325.59 492.733 325.584 492.818 325.562 492.9C325.539 492.982 325.5 493.058 325.446 493.125C325.393 493.191 325.327 493.245 325.252 493.285C319.535 496.53 312.173 496.592 305.691 496.647C296.181 496.726 288.665 496.805 287.959 505.44C287.854 507.22 288.226 508.996 289.036 510.585C289.846 512.173 291.065 513.517 292.568 514.478C299.571 519.641 312.26 520.386 322.652 516.125C322.812 516.066 322.99 516.071 323.147 516.138C323.305 516.206 323.431 516.33 323.5 516.487C323.563 516.647 323.56 516.826 323.492 516.985C323.425 517.144 323.297 517.269 323.138 517.335C312.312 521.689 299.138 520.925 291.798 515.525C290.109 514.442 288.743 512.924 287.842 511.131C286.941 509.338 286.539 507.336 286.678 505.334C287.469 495.514 296.316 495.427 305.687 495.355C312.28 495.249 319.18 495.236 324.61 492.153C324.762 492.072 324.939 492.054 325.104 492.102C325.27 492.15 325.409 492.261 325.494 492.41Z" fill="#FF6B6B"/>
<path d="M322.384 487.163C322.451 487.277 322.484 487.408 322.477 487.541C322.47 487.673 322.424 487.8 322.346 487.907C318.841 492.616 310.559 494.809 297.747 494.45C289.114 494.195 285.73 486.881 284.719 483.724C284.692 483.644 284.681 483.56 284.687 483.476C284.693 483.391 284.715 483.309 284.753 483.234C284.79 483.158 284.842 483.091 284.906 483.035C284.97 482.98 285.044 482.937 285.124 482.91C285.204 482.884 285.288 482.873 285.372 482.879C285.457 482.884 285.539 482.907 285.614 482.944C285.69 482.982 285.757 483.034 285.813 483.098C285.868 483.161 285.911 483.235 285.937 483.315C286.911 486.187 290.013 492.901 297.825 493.126C310.05 493.53 318.143 491.397 321.342 487.11C321.391 487.039 321.455 486.98 321.528 486.935C321.601 486.89 321.683 486.86 321.768 486.848C321.853 486.836 321.939 486.842 322.022 486.865C322.105 486.888 322.182 486.928 322.248 486.983C322.307 487.031 322.354 487.093 322.384 487.163Z" fill="#FF6B6B"/>
<path d="M318.54 483.145C318.596 483.234 318.631 483.335 318.641 483.439C318.651 483.544 318.635 483.649 318.596 483.747C315.514 491.208 304.005 493.079 295.259 490.141C293.305 489.62 291.559 488.512 290.257 486.965C288.955 485.418 288.16 483.508 287.98 481.494C287.957 481.402 287.954 481.307 287.97 481.213C287.987 481.12 288.024 481.031 288.079 480.954C288.133 480.876 288.204 480.811 288.285 480.763C288.367 480.715 288.458 480.685 288.553 480.676C288.647 480.667 288.742 480.678 288.832 480.709C288.922 480.739 289.004 480.789 289.072 480.855C289.141 480.92 289.194 481 289.23 481.088C289.265 481.176 289.28 481.27 289.275 481.365C289.445 483.122 290.147 484.784 291.287 486.131C292.428 487.477 293.952 488.443 295.657 488.899C303.731 491.589 314.625 489.946 317.38 483.229C317.412 483.15 317.459 483.078 317.518 483.017C317.578 482.956 317.649 482.908 317.727 482.875C317.806 482.842 317.89 482.825 317.975 482.825C318.06 482.825 318.145 482.842 318.223 482.875C318.354 482.93 318.464 483.025 318.54 483.145Z" fill="#FF6B6B"/>
<path d="M315.525 481.003C315.586 481.101 315.62 481.213 315.626 481.329C315.631 481.444 315.607 481.559 315.555 481.662C314.697 483.05 313.557 484.244 312.21 485.165C310.863 486.087 309.338 486.717 307.733 487.015C303.336 488.08 298.057 487.509 295.438 485.729C294.422 485.012 293.589 484.065 293.007 482.965C292.426 481.866 292.111 480.645 292.089 479.401C292.085 479.316 292.097 479.231 292.126 479.151C292.154 479.071 292.198 478.997 292.255 478.934C292.312 478.87 292.381 478.819 292.458 478.783C292.535 478.746 292.618 478.725 292.703 478.721C292.788 478.716 292.873 478.729 292.953 478.757C293.033 478.785 293.107 478.829 293.17 478.886C293.233 478.943 293.285 479.012 293.321 479.089C293.358 479.166 293.379 479.249 293.383 479.334C293.387 480.381 293.643 481.411 294.129 482.339C294.615 483.266 295.316 484.063 296.174 484.662C298.205 486.037 302.961 486.819 307.392 485.711C308.823 485.457 310.185 484.906 311.39 484.093C312.595 483.28 313.615 482.223 314.386 480.991C314.471 480.841 314.61 480.73 314.776 480.682C314.941 480.634 315.119 480.653 315.27 480.734C315.378 480.798 315.467 480.891 315.525 481.003Z" fill="#FF6B6B"/>
<path d="M310.915 478.811C310.968 478.887 311.002 478.975 311.015 479.067C311.027 479.159 311.018 479.253 310.987 479.341C310.078 482.677 306.028 484.445 301.051 483.64C299.657 483.573 298.341 482.972 297.377 481.962C296.414 480.952 295.875 479.609 295.874 478.213C295.871 478.129 295.884 478.044 295.914 477.965C295.943 477.885 295.988 477.812 296.046 477.75C296.104 477.688 296.174 477.639 296.251 477.604C296.328 477.569 296.412 477.55 296.497 477.548C296.671 477.543 296.839 477.608 296.966 477.727C297.092 477.846 297.166 478.011 297.172 478.185C297.168 479.278 297.594 480.328 298.359 481.109C299.124 481.889 300.165 482.338 301.258 482.356C306.211 483.156 309.122 481.15 309.735 478.99C309.774 478.823 309.877 478.678 310.021 478.586C310.165 478.493 310.34 478.461 310.508 478.496C310.595 478.515 310.676 478.553 310.747 478.608C310.817 478.662 310.875 478.732 310.915 478.811Z" fill="#FF6B6B"/>
<path d="M306.89 477.726C306.956 477.829 306.992 477.948 306.994 478.07C306.996 478.193 306.964 478.313 306.901 478.418C306.542 479.019 306.021 479.508 305.398 479.829C304.775 480.15 304.075 480.291 303.377 480.235C302.678 480.18 302.009 479.93 301.445 479.514C300.881 479.098 300.445 478.533 300.185 477.882C300.142 477.717 300.164 477.541 300.248 477.392C300.332 477.243 300.47 477.133 300.634 477.084C300.798 477.036 300.974 477.052 301.126 477.131C301.277 477.21 301.392 477.345 301.446 477.507C301.58 477.863 301.803 478.177 302.095 478.419C302.387 478.661 302.738 478.823 303.111 478.889C303.621 479.064 304.177 479.042 304.672 478.828C305.166 478.615 305.563 478.224 305.785 477.734C305.83 477.66 305.889 477.597 305.958 477.547C306.028 477.496 306.107 477.461 306.191 477.442C306.275 477.423 306.361 477.421 306.446 477.436C306.53 477.451 306.611 477.483 306.683 477.53C306.768 477.576 306.84 477.643 306.89 477.726Z" fill="#FF6B6B"/>
<path d="M318.817 521.702C318.895 521.863 318.911 522.047 318.861 522.219C318.812 522.391 318.701 522.539 318.55 522.634C311.583 525.007 304.007 524.881 297.123 522.276C292.99 520.696 289.031 518.695 285.307 516.306C282.853 514.506 280.059 513.222 277.095 512.532C275.11 512.214 273.075 512.49 271.246 513.327C269.418 514.163 267.878 515.523 266.821 517.233C266.727 517.377 266.581 517.48 266.413 517.518C266.246 517.556 266.07 517.527 265.923 517.437C265.782 517.338 265.684 517.19 265.648 517.021C265.613 516.852 265.644 516.677 265.734 516.53C266.919 514.605 268.647 513.072 270.7 512.125C272.753 511.178 275.04 510.857 277.274 511.204C280.411 511.906 283.369 513.247 285.963 515.146C289.618 517.494 293.506 519.458 297.566 521.006C304.12 523.487 311.328 523.632 317.977 521.417C318.049 521.372 318.13 521.343 318.215 521.334C318.299 521.324 318.385 521.333 318.465 521.36C318.546 521.387 318.619 521.432 318.68 521.491C318.741 521.551 318.788 521.623 318.817 521.702Z" fill="#FF6B6B"/>
<path d="M310.228 527.463C310.3 527.532 310.355 527.617 310.387 527.711C310.395 527.796 310.386 527.88 310.361 527.961C310.337 528.042 310.296 528.117 310.242 528.182C310.188 528.247 310.122 528.301 310.047 528.34C309.972 528.38 309.891 528.404 309.806 528.411C302.104 529.226 294.856 525.288 288.469 521.828C282.511 518.587 277.37 515.79 273.179 517.401C272.125 517.762 271.182 518.389 270.443 519.222C269.704 520.055 269.193 521.066 268.961 522.155C268.944 522.239 268.91 522.318 268.862 522.389C268.813 522.459 268.751 522.519 268.679 522.565C268.607 522.611 268.526 522.643 268.442 522.657C268.358 522.671 268.271 522.669 268.188 522.649C268.021 522.61 267.876 522.508 267.784 522.363C267.691 522.219 267.659 522.044 267.693 521.876C267.992 520.587 268.611 519.394 269.494 518.409C270.377 517.423 271.495 516.677 272.744 516.24C277.468 514.432 282.88 517.364 289.119 520.755C295.358 524.145 302.382 527.958 309.685 527.194C309.791 527.192 309.895 527.215 309.989 527.262C310.084 527.309 310.166 527.378 310.228 527.463Z" fill="#FF6B6B"/>
<path d="M305.413 530.543C305.502 530.62 305.567 530.722 305.6 530.835C305.6 531.008 305.533 531.174 305.412 531.298C305.291 531.422 305.126 531.493 304.953 531.496C299.49 531.536 294.034 528.857 288.76 526.269C283.486 523.68 278.154 521.066 274.482 522.654C273.705 522.992 273.069 523.588 272.682 524.342C272.294 525.096 272.18 525.96 272.357 526.789C272.363 526.959 272.304 527.126 272.192 527.255C272.079 527.384 271.923 527.466 271.753 527.483C271.667 527.491 271.581 527.481 271.499 527.454C271.418 527.428 271.342 527.385 271.277 527.329C271.213 527.272 271.16 527.203 271.122 527.126C271.084 527.049 271.063 526.965 271.058 526.879C270.865 525.781 271.047 524.65 271.574 523.667C272.102 522.685 272.944 521.908 273.967 521.462C278.191 519.644 283.603 522.289 289.33 525.102C294.48 527.626 299.788 530.235 304.925 530.198C305.028 530.211 305.127 530.25 305.212 530.31C305.297 530.37 305.366 530.45 305.413 530.543Z" fill="#FF6B6B"/>
<path d="M300.661 533.11C300.726 533.215 300.761 533.336 300.76 533.46C300.76 533.584 300.724 533.705 300.658 533.81C300.592 533.914 300.498 533.998 300.386 534.052C300.274 534.105 300.15 534.126 300.027 534.112C296.002 533.394 292.107 532.081 288.469 530.217C283.996 528.206 280.127 526.465 277.658 527.715C277.151 527.939 276.733 528.323 276.467 528.809C276.201 529.295 276.104 529.855 276.19 530.402C276.2 530.574 276.142 530.743 276.029 530.873C275.916 531.003 275.757 531.083 275.586 531.097C275.501 531.105 275.416 531.097 275.336 531.071C275.255 531.046 275.18 531.004 275.116 530.949C275.052 530.894 275 530.827 274.963 530.751C274.926 530.675 274.904 530.592 274.9 530.507C274.792 529.705 274.944 528.89 275.335 528.181C275.726 527.472 276.334 526.907 277.07 526.57C280.092 525.028 284.213 526.874 288.947 529.068C292.478 530.859 296.248 532.131 300.142 532.845C300.243 532.845 300.343 532.869 300.433 532.915C300.523 532.961 300.601 533.028 300.661 533.11Z" fill="#FF6B6B"/>
<path d="M292.64 534.971C292.689 535.051 292.719 535.141 292.729 535.234C292.739 535.328 292.728 535.422 292.697 535.51C292.681 535.593 292.648 535.671 292.601 535.741C292.553 535.81 292.492 535.869 292.422 535.915C292.351 535.96 292.271 535.991 292.188 536.005C292.105 536.018 292.02 536.015 291.939 535.996C289.993 535.331 288.124 534.458 286.367 533.391C284.689 532.408 283.228 531.698 282.617 531.966C282.286 532.109 281.993 532.329 281.764 532.608C281.535 532.887 281.376 533.216 281.299 533.569C281.26 533.736 281.158 533.881 281.013 533.974C280.869 534.066 280.694 534.098 280.526 534.064C280.442 534.047 280.363 534.013 280.292 533.964C280.222 533.916 280.162 533.854 280.116 533.782C280.069 533.709 280.038 533.629 280.024 533.545C280.009 533.46 280.012 533.374 280.031 533.291C280.158 532.753 280.408 532.253 280.76 531.828C281.112 531.403 281.558 531.065 282.062 530.84C283.337 530.23 284.953 531.15 287.08 532.257C288.75 533.276 290.526 534.112 292.375 534.75C292.481 534.8 292.572 534.876 292.64 534.971Z" fill="#FF6B6B"/>
<path d="M283.036 485.561C287.086 491.894 287.673 498.468 284.599 503.209C281.526 507.951 277.36 507.963 272.48 508.144C269.973 508.281 267.588 509.27 265.719 510.947C265.572 511.042 265.395 511.077 265.222 511.046C265.05 511.015 264.896 510.92 264.791 510.78C264.74 510.715 264.704 510.64 264.683 510.559C264.663 510.479 264.66 510.396 264.673 510.314C264.686 510.232 264.716 510.154 264.76 510.085C264.805 510.015 264.863 509.955 264.932 509.909C267 508.07 269.635 506.994 272.398 506.86C277.322 506.651 280.89 506.507 283.488 502.501C286.349 498.102 285.654 491.905 281.675 485.877C281.627 485.806 281.594 485.726 281.577 485.642C281.56 485.558 281.561 485.472 281.578 485.388C281.595 485.304 281.629 485.224 281.678 485.154C281.726 485.083 281.788 485.023 281.86 484.977C282.005 484.884 282.18 484.852 282.348 484.887C282.516 484.921 282.664 485.02 282.76 485.162L283.036 485.561Z" fill="#FF6B6B"/>
<path d="M279.89 488.807C282.177 492.382 282.588 496.046 280.941 499.032C280.261 500.302 279.23 501.349 277.971 502.048C276.712 502.748 275.279 503.07 273.841 502.976C271.304 502.72 268.745 503.168 266.447 504.273C266.29 504.342 266.112 504.35 265.95 504.293C265.787 504.237 265.653 504.12 265.573 503.968C265.535 503.892 265.512 503.81 265.506 503.725C265.5 503.64 265.511 503.555 265.538 503.475C265.565 503.395 265.608 503.321 265.663 503.257C265.719 503.193 265.787 503.141 265.863 503.104C268.376 501.89 271.176 501.394 273.953 501.672C275.141 501.746 276.326 501.477 277.365 500.896C278.405 500.315 279.255 499.447 279.814 498.395C281.387 495.519 280.726 491.85 277.968 488.309C277.867 488.171 277.823 487.999 277.844 487.829C277.865 487.659 277.95 487.504 278.082 487.394C278.148 487.34 278.226 487.3 278.308 487.276C278.391 487.252 278.478 487.245 278.563 487.256C278.649 487.267 278.731 487.294 278.806 487.337C278.88 487.381 278.945 487.438 278.997 487.507C279.316 487.941 279.61 488.369 279.89 488.807Z" fill="#FF6B6B"/>
<path d="M277.074 491.122C277.546 491.758 277.866 492.493 278.011 493.271C278.155 494.05 278.12 494.851 277.907 495.613C277.695 496.376 277.311 497.08 276.785 497.672C276.259 498.263 275.605 498.727 274.872 499.027C272.981 499.638 270.954 499.692 269.032 499.186L268.092 499.067C267.925 499.037 267.776 498.944 267.676 498.807C267.576 498.67 267.533 498.5 267.555 498.332C267.578 498.164 267.664 498.011 267.797 497.905C267.929 497.799 268.097 497.748 268.266 497.763L269.224 497.911C270.891 498.331 272.638 498.317 274.299 497.873C274.915 497.599 275.459 497.184 275.885 496.662C276.312 496.139 276.609 495.523 276.753 494.864C276.809 494.036 276.67 493.206 276.345 492.442C276.021 491.678 275.521 491.001 274.886 490.466C274.768 490.34 274.703 490.174 274.703 490.002C274.704 489.829 274.77 489.664 274.889 489.539C274.951 489.478 275.025 489.43 275.106 489.398C275.187 489.366 275.274 489.35 275.361 489.352C275.448 489.353 275.534 489.372 275.614 489.407C275.694 489.443 275.766 489.493 275.826 489.556C276.289 490.039 276.707 490.563 277.074 491.122Z" fill="#FF6B6B"/>
<path d="M273.15 492.028L273.272 492.218C273.343 492.479 273.359 492.752 273.317 493.019C273.276 493.287 273.178 493.543 273.031 493.77C272.802 494.061 272.514 494.302 272.186 494.476C271.859 494.65 271.498 494.754 271.128 494.781C271.039 494.803 270.947 494.807 270.856 494.791C270.766 494.775 270.68 494.74 270.603 494.689C270.527 494.638 270.462 494.572 270.413 494.494C270.364 494.416 270.332 494.329 270.319 494.239C270.305 494.148 270.311 494.055 270.335 493.967C270.36 493.878 270.403 493.796 270.461 493.725C270.519 493.654 270.591 493.596 270.673 493.555C270.755 493.513 270.845 493.49 270.937 493.485C271.315 493.458 271.674 493.308 271.959 493.058C272.004 492.976 272.032 492.885 272.039 492.791C272.047 492.698 272.034 492.604 272.003 492.516C271.981 492.432 271.977 492.345 271.99 492.26C272.004 492.175 272.034 492.094 272.079 492.021C272.124 491.948 272.184 491.884 272.254 491.835C272.325 491.785 272.404 491.75 272.488 491.732C272.616 491.711 272.746 491.728 272.864 491.781C272.982 491.833 273.081 491.919 273.15 492.028Z" fill="#FF6B6B"/>
<path d="M284.82 506.769C284.914 506.916 284.946 507.094 284.911 507.265C284.732 508.593 284.965 509.944 285.578 511.136C285.636 511.265 285.651 511.409 285.62 511.547C285.59 511.684 285.516 511.809 285.41 511.902C285.301 511.992 285.165 512.044 285.023 512.05C284.881 512.055 284.741 512.013 284.626 511.93C283.486 511.139 282.237 510.518 280.918 510.087C280.786 510.051 280.666 509.979 280.573 509.879C280.479 509.779 280.416 509.654 280.391 509.519C280.378 509.383 280.406 509.246 280.473 509.126C280.54 509.006 280.641 508.91 280.764 508.849C281.881 508.334 282.893 507.617 283.749 506.734C283.84 506.615 283.968 506.53 284.112 506.494C284.257 506.457 284.41 506.471 284.546 506.533C284.658 506.583 284.754 506.665 284.82 506.769ZM283.78 509.901C283.677 509.499 283.607 509.09 283.573 508.677C283.237 508.891 282.917 509.096 282.61 509.292C283.011 509.475 283.401 509.678 283.78 509.901Z" fill="#FF6B6B"/>
<path d="M292.113 495.155C292.157 495.222 292.187 495.297 292.202 495.375C292.217 495.454 292.216 495.535 292.2 495.613C292.181 495.749 292.117 495.876 292.019 495.972C291.921 496.068 291.793 496.129 291.657 496.146C290.728 496.31 289.869 496.745 289.187 497.396C289.093 497.497 288.968 497.565 288.831 497.59C288.695 497.614 288.554 497.593 288.431 497.531C288.298 497.483 288.185 497.392 288.109 497.274C288.033 497.155 287.999 497.015 288.011 496.874C288.078 495.759 287.942 494.641 287.607 493.575C287.567 493.435 287.575 493.285 287.63 493.149C287.685 493.014 287.783 492.9 287.91 492.827C288.034 492.75 288.181 492.719 288.325 492.739C288.469 492.76 288.602 492.83 288.7 492.938C289.651 493.734 290.693 494.413 291.804 494.962C291.922 494.998 292.028 495.065 292.113 495.155ZM289.389 495.622C289.55 495.5 289.721 495.391 289.9 495.296L289.283 494.909L289.389 495.622Z" fill="#FF6B6B"/>
<path d="M362.583 463.383C362.684 463.539 362.732 463.722 362.721 463.907C362.71 464.092 362.639 464.268 362.52 464.41L348.051 481.293C354.21 494.346 355.169 509.254 350.732 522.988C346.296 536.722 336.796 548.251 324.165 555.234C311.534 562.216 296.718 564.127 282.728 560.579C268.738 557.031 256.624 548.289 248.847 536.131C241.07 523.972 238.214 509.309 240.86 495.121C243.505 480.932 251.453 468.283 263.089 459.744C274.724 451.205 289.175 447.416 303.503 449.148C317.832 450.879 330.964 458.001 340.23 469.066L361.625 463.01C361.803 462.961 361.993 462.971 362.165 463.039C362.338 463.106 362.484 463.227 362.583 463.383ZM250.308 535.196C257.869 547.032 269.668 555.53 283.289 558.953C296.91 562.376 311.324 560.464 323.582 553.608C335.84 546.753 345.015 535.472 349.23 522.075C353.444 508.678 352.38 494.176 346.254 481.538C346.176 481.388 346.145 481.217 346.167 481.049C346.188 480.881 346.26 480.724 346.373 480.598L359.315 465.474L340.157 470.881C339.996 470.928 339.823 470.926 339.662 470.875C339.502 470.824 339.36 470.727 339.255 470.595C330.35 459.734 317.631 452.686 303.702 450.894C289.772 449.102 275.684 452.701 264.32 460.955C252.956 469.208 245.176 481.492 242.571 495.293C239.966 509.094 242.734 523.369 250.308 535.196Z" fill="#FF6B6B"/>
<g opacity="0.7">
<path d="M362.583 463.383C362.684 463.539 362.732 463.722 362.721 463.907C362.71 464.092 362.639 464.268 362.52 464.41L348.051 481.293C354.21 494.346 355.169 509.254 350.732 522.988C346.296 536.722 336.796 548.251 324.165 555.234C311.534 562.216 296.718 564.127 282.728 560.579C268.738 557.031 256.624 548.289 248.847 536.131C241.07 523.972 238.214 509.309 240.86 495.121C243.505 480.932 251.453 468.283 263.089 459.744C274.724 451.205 289.175 447.416 303.503 449.148C317.832 450.879 330.964 458.001 340.23 469.066L361.625 463.01C361.803 462.961 361.993 462.971 362.165 463.039C362.338 463.106 362.484 463.227 362.583 463.383ZM250.308 535.196C257.869 547.032 269.668 555.53 283.289 558.953C296.91 562.376 311.324 560.464 323.582 553.608C335.84 546.753 345.015 535.472 349.23 522.075C353.444 508.678 352.38 494.176 346.254 481.538C346.176 481.388 346.145 481.217 346.167 481.049C346.188 480.881 346.26 480.724 346.373 480.598L359.315 465.474L340.157 470.881C339.996 470.928 339.823 470.926 339.662 470.875C339.502 470.824 339.36 470.727 339.255 470.595C330.35 459.734 317.631 452.686 303.702 450.894C289.772 449.102 275.684 452.701 264.32 460.955C252.956 469.208 245.176 481.492 242.571 495.293C239.966 509.094 242.734 523.369 250.308 535.196Z" fill="#FF6B6B"/>
</g>
<path d="M280.584 347.353C272.962 339.73 267.706 330.067 265.448 319.526C263.19 308.986 264.026 298.017 267.855 287.941C271.685 277.864 278.345 269.11 287.034 262.73C295.724 256.35 306.071 252.618 316.832 251.981C327.593 251.345 338.308 253.832 347.689 259.143C357.069 264.455 364.715 272.364 369.705 281.919C374.696 291.473 376.818 302.267 375.818 313C374.818 323.733 370.737 333.949 364.066 342.417L374.822 362.508L354.731 351.735C343.977 360.205 330.49 364.438 316.825 363.63C303.16 362.823 290.265 357.031 280.584 347.353Z" fill="#6BA2EE"/>
<path opacity="0.7" d="M280.584 347.353C272.962 339.73 267.706 330.067 265.448 319.526C263.19 308.986 264.026 298.017 267.855 287.941C271.685 277.864 278.345 269.11 287.034 262.73C295.724 256.35 306.071 252.618 316.832 251.981C327.593 251.345 338.308 253.832 347.689 259.143C357.069 264.455 364.715 272.364 369.705 281.919C374.696 291.473 376.818 302.267 375.818 313C374.818 323.733 370.737 333.949 364.066 342.417L374.822 362.508L354.731 351.735C343.977 360.205 330.49 364.438 316.825 363.63C303.16 362.823 290.265 357.031 280.584 347.353Z" fill="white"/>
<path d="M328.647 286.542L309.751 282.438L290.837 286.542V336.06L309.751 331.955L328.647 336.06L347.543 331.955V282.438L328.647 286.542Z" fill="#6BA2EE"/>
<path opacity="0.4" d="M328.647 286.542L309.751 282.438L290.837 286.542V336.06L309.751 331.955L328.647 336.06L347.543 331.955V282.438L328.647 286.542Z" fill="white"/>
<path d="M345.621 284.827V330.396L328.647 334.103L315.38 331.21L310.322 330.119L309.751 329.981L292.76 333.687V288.101L297.939 286.975L302.373 286.022L309.751 284.412L328.647 288.516L334.882 287.165L341.481 285.728L345.621 284.827Z" fill="#6BA2EE"/>
<path opacity="0.3" d="M345.621 307.621L344.114 308.054L345.621 313.267V322.083L341.776 308.712L311.414 317.424L315.38 331.21L310.322 330.119L307.032 318.688L292.76 322.776V318.047L305.767 314.323L302.251 302.009L292.76 304.745V301.992L301.524 299.463L297.939 286.975L302.373 286.022L310.149 313.059L326.188 308.452L323.33 298.51H323.347L323.33 298.476L334.882 287.166L341.481 285.728L327.694 299.255L330.033 307.361L345.621 302.875V307.621Z" fill="white"/>
<path opacity="0.2" d="M309.751 282.438V331.955L328.647 336.06V286.542L309.751 282.438Z" fill="white"/>
<path d="M334.796 316.575C333.675 315.454 332.155 314.825 330.57 314.825C328.985 314.825 327.464 315.454 326.344 316.575C325.223 317.696 324.593 319.216 324.593 320.801C324.593 322.386 325.223 323.907 326.344 325.027L330.57 329.236L334.796 325.027C335.351 324.472 335.791 323.814 336.092 323.089C336.392 322.363 336.547 321.586 336.547 320.801C336.547 320.016 336.392 319.239 336.092 318.514C335.791 317.789 335.351 317.13 334.796 316.575ZM332.215 322.447C331.777 322.88 331.186 323.124 330.57 323.124C329.953 323.124 329.362 322.88 328.924 322.447C328.491 322.009 328.247 321.418 328.247 320.801C328.247 320.185 328.491 319.594 328.924 319.156C329.14 318.94 329.397 318.768 329.679 318.651C329.961 318.535 330.264 318.474 330.57 318.474C330.875 318.474 331.178 318.535 331.46 318.651C331.742 318.768 331.999 318.94 332.215 319.156C332.431 319.372 332.602 319.628 332.719 319.911C332.836 320.193 332.897 320.496 332.897 320.801C332.897 321.107 332.836 321.409 332.719 321.692C332.602 321.974 332.431 322.231 332.215 322.447Z" fill="white"/>
<path d="M320.126 364.621C307.293 364.634 294.834 360.302 284.777 352.331C274.721 344.359 267.66 333.218 264.744 320.721C261.828 308.224 263.228 295.108 268.718 283.509C274.208 271.91 283.463 262.511 294.976 256.843C306.489 251.175 319.582 249.572 332.122 252.295C344.663 255.018 355.912 261.907 364.037 271.84C372.163 281.772 376.686 294.163 376.871 306.994C377.055 319.825 372.89 332.341 365.054 342.503L375.567 362.092C375.652 362.257 375.682 362.445 375.654 362.628C375.626 362.812 375.541 362.981 375.411 363.114C375.28 363.246 375.11 363.333 374.926 363.361C374.742 363.389 374.554 363.357 374.389 363.27L354.8 352.774C344.875 360.457 332.677 364.624 320.126 364.621ZM320.126 252.768C311.343 252.763 302.687 254.859 294.88 258.881C287.073 262.903 280.341 268.734 275.246 275.888C270.151 283.042 266.842 291.31 265.594 300.003C264.346 308.697 265.195 317.562 268.071 325.86C270.947 334.158 275.767 341.648 282.127 347.704C288.487 353.76 296.204 358.207 304.633 360.673C313.062 363.139 321.959 363.554 330.58 361.881C339.202 360.209 347.299 356.498 354.194 351.059C354.329 350.957 354.489 350.894 354.658 350.879C354.826 350.864 354.996 350.896 355.147 350.973L372.709 360.395L363.304 342.832C363.211 342.691 363.162 342.525 363.162 342.356C363.162 342.187 363.211 342.021 363.304 341.88C369.711 333.76 373.7 324 374.813 313.718C375.927 303.435 374.12 293.047 369.6 283.745C365.08 274.443 358.029 266.602 349.257 261.123C340.485 255.645 330.347 252.749 320.004 252.768H320.126Z" fill="#6BA2EE"/>
<path d="M429.449 439.582H425.119V441.314H429.449V439.582Z" fill="#F5A623"/>
<path d="M419.923 416.314H411.263V414.582H419.923V416.314ZM406.067 416.314H397.407V414.582H406.067V416.314ZM392.211 416.314H383.551V414.582H392.211V416.314ZM378.355 416.314H369.695V414.582H378.355V416.314ZM364.499 416.314H355.839V414.582H364.499V416.314ZM350.643 416.314H341.983V414.582H350.643V416.314ZM336.787 416.314H328.127V414.582H336.787V416.314ZM322.931 416.314H314.271V414.582H322.931V416.314ZM308.971 414.893L303.1 408.779L304.329 407.55L310.443 413.664L308.971 414.893ZM299.203 405.108L293.089 399.011L294.318 397.781L300.415 403.895L299.203 405.108ZM289.417 395.339L283.32 389.225L284.533 388.013L290.647 394.109L289.417 395.339Z" fill="#F5A623"/>
<path d="M278.037 381.288L276.812 382.513L279.874 385.575L281.099 384.351L278.037 381.288Z" fill="#F5A623"/>
<path d="M276.323 383.873C275.713 383.873 275.116 383.692 274.609 383.352C274.101 383.013 273.706 382.53 273.473 381.966C273.24 381.401 273.18 380.781 273.301 380.182C273.421 379.584 273.716 379.034 274.149 378.604C274.582 378.173 275.133 377.881 275.732 377.764C276.332 377.647 276.952 377.711 277.515 377.947C278.078 378.183 278.558 378.581 278.895 379.09C279.232 379.599 279.41 380.197 279.406 380.807C279.402 381.622 279.075 382.402 278.497 382.976C277.919 383.551 277.138 383.873 276.323 383.873ZM276.323 379.456C276.056 379.456 275.795 379.536 275.573 379.684C275.35 379.832 275.177 380.043 275.075 380.29C274.973 380.537 274.946 380.809 274.998 381.071C275.05 381.333 275.179 381.574 275.368 381.763C275.557 381.952 275.798 382.08 276.06 382.132C276.322 382.184 276.593 382.158 276.84 382.055C277.087 381.953 277.298 381.78 277.446 381.558C277.595 381.336 277.674 381.075 277.674 380.807C277.674 380.449 277.532 380.105 277.278 379.852C277.025 379.599 276.681 379.456 276.323 379.456Z" fill="#F5A623"/>
<path d="M539 416.607H547.66V414.875H539V416.607ZM552.856 416.607H561.516V414.875H552.856V416.607ZM566.712 416.607H575.372V414.875H566.712V416.607ZM580.568 416.607H589.228V414.875H580.568V416.607ZM594.424 416.607H603.084V414.875H594.424V416.607ZM608.28 416.607H616.94V414.875H608.28V416.607ZM622.136 416.607H630.796V414.875H622.136V416.607ZM635.992 416.607H644.652V414.875H635.992V416.607ZM649.952 415.186L655.823 409.072L654.594 407.843L648.48 413.957L649.952 415.186ZM659.72 405.4L665.834 399.304L664.605 398.074L658.508 404.188L659.72 405.4ZM669.506 395.632L675.603 389.518L674.39 388.306L668.276 394.402L669.506 395.632Z" fill="#F5A623"/>
<path d="M680.886 381.581L682.111 382.806L679.049 385.868L677.824 384.643L680.886 381.581Z" fill="#F5A623"/>
<path d="M682.6 384.166C683.21 384.166 683.807 383.985 684.315 383.645C684.822 383.306 685.217 382.823 685.45 382.259C685.683 381.694 685.743 381.074 685.622 380.475C685.502 379.877 685.207 379.327 684.774 378.897C684.341 378.466 683.79 378.174 683.191 378.057C682.592 377.94 681.971 378.004 681.408 378.24C680.845 378.476 680.365 378.874 680.028 379.383C679.691 379.892 679.514 380.49 679.517 381.1C679.522 381.915 679.848 382.695 680.426 383.269C681.004 383.844 681.785 384.166 682.6 384.166ZM682.6 379.749C682.867 379.749 683.128 379.829 683.35 379.977C683.573 380.125 683.746 380.336 683.848 380.583C683.95 380.83 683.977 381.102 683.925 381.364C683.873 381.626 683.744 381.867 683.555 382.056C683.366 382.245 683.126 382.373 682.864 382.425C682.601 382.477 682.33 382.451 682.083 382.348C681.836 382.246 681.625 382.073 681.477 381.851C681.328 381.629 681.249 381.367 681.249 381.1C681.249 380.742 681.391 380.398 681.645 380.145C681.898 379.892 682.242 379.749 682.6 379.749Z" fill="#F5A623"/>
<path d="M529.057 352.86H429.83C426.578 352.86 423.942 355.497 423.942 358.749V457.802C423.942 461.055 426.578 463.691 429.83 463.691H529.057C532.309 463.691 534.946 461.055 534.946 457.802V358.749C534.946 355.497 532.309 352.86 529.057 352.86Z" fill="#FFE0AD"/>
<path opacity="0.4" d="M518.509 430.437H440.343C438.823 430.437 437.59 431.669 437.59 433.19V447.705C437.59 449.225 438.823 450.458 440.343 450.458H518.509C520.03 450.458 521.263 449.225 521.263 447.705V433.19C521.263 431.669 520.03 430.437 518.509 430.437Z" fill="white"/>
<path d="M450.407 440.447L452.779 441.746L451.965 443.167L449.558 441.746V444.431H447.982V441.764L445.592 443.167L444.76 441.746L447.15 440.447L444.76 439.131L445.592 437.694L447.982 439.114V436.464H449.558V439.148L451.965 437.711L452.779 439.148L450.407 440.447Z" fill="#F5A623"/>
<path d="M460.712 440.447L463.085 441.746L462.271 443.167L459.863 441.746V444.431H458.287V441.764L455.897 443.167L455.065 441.746L457.456 440.447L455.065 439.131L455.897 437.694L458.287 439.114V436.464H459.863V439.148L462.271 437.711L463.085 439.148L460.712 440.447Z" fill="#F5A623"/>
<path d="M470.844 440.447L473.217 441.746L472.403 443.167L469.995 441.746V444.431H468.419V441.764L466.029 443.167L465.198 441.746L467.588 440.447L465.198 439.131L466.029 437.694L468.419 439.114V436.464H469.995V439.148L472.403 437.711L473.217 439.148L470.844 440.447Z" fill="#F5A623"/>
<path d="M481.063 440.447L483.418 441.746L482.622 443.167L480.214 441.746V444.431H478.638V441.764L476.248 443.167L475.417 441.746L477.807 440.447L475.417 439.131L476.248 437.694L478.638 439.114V436.464H480.214V439.148L482.622 437.711L483.418 439.148L481.063 440.447Z" fill="#F5A623"/>
<path d="M491.282 440.448L493.637 441.747L492.84 443.167L490.416 441.747V444.431H488.822V441.764L486.432 443.167L485.601 441.747L487.991 440.448L485.601 439.131L486.432 437.694L488.822 439.114V436.447H490.416V439.131L492.84 437.694L493.637 439.131L491.282 440.448Z" fill="#F5A623"/>
<path d="M501.483 440.447L503.856 441.746L503.042 443.167L500.635 441.746V444.431H499.058V441.764L496.686 443.167L495.854 441.746L498.227 440.447L495.854 439.131L496.686 437.694L499.058 439.114V436.464H500.635V439.148L503.042 437.711L503.856 439.148L501.483 440.447Z" fill="#F5A623"/>
<path d="M511.702 440.447L514.075 441.746L513.261 443.167L510.853 441.746V444.431H509.277V441.764L506.887 443.167L506.056 441.746L508.446 440.447L506.056 439.131L506.887 437.694L509.277 439.114V436.464H510.94V439.148L513.347 437.711L514.161 439.148L511.702 440.447Z" fill="#F5A623"/>
<path d="M493.62 390.306H490.156V386.946C490.156 385.656 489.902 384.379 489.408 383.188C488.915 381.996 488.191 380.914 487.28 380.002C486.368 379.09 485.285 378.367 484.094 377.873C482.902 377.38 481.625 377.126 480.335 377.126C479.046 377.126 477.769 377.38 476.577 377.873C475.386 378.367 474.303 379.09 473.391 380.002C472.479 380.914 471.756 381.996 471.263 383.188C470.769 384.379 470.515 385.656 470.515 386.946V390.306H467.051V386.946C467.051 383.423 468.451 380.044 470.942 377.553C473.433 375.061 476.812 373.662 480.335 373.662C483.859 373.662 487.238 375.061 489.729 377.553C492.22 380.044 493.62 383.423 493.62 386.946V390.306Z" fill="white"/>
<path d="M495.49 392.125H465.284C464.595 392.125 463.934 392.399 463.447 392.886C462.96 393.373 462.686 394.034 462.686 394.723V412.615C462.691 413.301 462.967 413.957 463.453 414.44C463.94 414.924 464.598 415.195 465.284 415.195H495.49C496.176 415.195 496.835 414.924 497.321 414.44C497.808 413.957 498.084 413.301 498.088 412.615V394.723C498.088 394.034 497.815 393.373 497.327 392.886C496.84 392.399 496.179 392.125 495.49 392.125ZM481.496 403.816V409.497H479.383V403.816C478.702 403.568 478.13 403.088 477.768 402.46C477.407 401.832 477.277 401.097 477.403 400.383C477.529 399.67 477.903 399.023 478.458 398.558C479.013 398.092 479.715 397.837 480.439 397.837C481.164 397.837 481.865 398.092 482.42 398.558C482.976 399.023 483.349 399.67 483.475 400.383C483.601 401.097 483.472 401.832 483.11 402.46C482.748 403.088 482.177 403.568 481.496 403.816Z" fill="white"/>
</g>
</svg>
