<svg width="40" height="40" viewBox="0 0 40 40" fill="none" xmlns="http://www.w3.org/2000/svg">
<path d="M9.055 7.82422H7.76147V10.4329H9.055C9.76823 10.4329 10.3485 9.84773 10.3485 9.12851C10.3485 8.40929 9.76823 7.82422 9.055 7.82422Z" fill="#FF6B6B"/>
<path d="M37.0803 34.5421C38.5826 34.002 39.6672 32.5677 39.6672 30.8694V28.2607C39.6672 26.4461 38.4301 24.9301 36.7657 24.4894L35.0163 19.1974C34.7595 18.4178 34.2657 17.7397 33.6049 17.2593C32.9441 16.779 32.1499 16.5208 31.3353 16.5216H21.2669C20.4524 16.5208 19.6583 16.7789 18.9975 17.2592C18.3367 17.7394 17.8428 18.4175 17.586 19.197L15.8364 24.4894C14.1721 24.93 12.935 26.446 12.935 28.2607V30.8693C12.935 32.5675 14.0197 34.0018 15.522 34.542V36.0867C15.522 36.5462 15.6155 36.981 15.7603 37.391H10.348V20.7653C14.7287 20.129 18.1089 16.3296 18.1089 11.7391V9.13043C18.1089 4.096 14.0474 0 9.05451 0C4.06163 0 0 4.096 0 9.13043V11.7391C0 16.3296 3.38024 20.129 7.76099 20.7653V37.3912H1.29352C0.579436 37.3912 0 37.975 0 38.6955C0 39.416 0.579436 39.9998 1.29352 39.9998H38.3738C39.0879 39.9998 39.6673 39.416 39.6673 38.6955C39.6673 37.9749 39.0879 37.3911 38.3738 37.3911H36.842C36.9868 36.9811 37.0803 36.5463 37.0803 36.0867V34.5421ZM7.76099 13.0435V14.3478C7.76099 15.0684 7.18155 15.6522 6.46746 15.6522C5.75338 15.6522 5.17394 15.0684 5.17394 14.3478V6.52169C5.17394 5.80115 5.75338 5.21732 6.46746 5.21732H9.05443C11.1942 5.21732 12.9349 6.97263 12.9349 9.13035C12.9349 11.2881 11.1942 13.0434 9.05443 13.0434H7.76099V13.0435ZM20.04 20.022C20.1258 19.7623 20.2904 19.5364 20.5107 19.3763C20.7309 19.2163 20.9956 19.1302 21.2671 19.1304H31.3355C31.607 19.1302 31.8717 19.2163 32.092 19.3765C32.3122 19.5366 32.4769 19.7626 32.5625 20.0225L33.9922 24.3478H18.61L20.04 20.022ZM16.8154 32.1738C16.1022 32.1738 15.5219 31.5886 15.5219 30.8694V28.2607C15.5219 27.5415 16.1022 26.9564 16.8154 26.9564H18.4704L20.1951 32.1738H16.8154ZM23.0446 37.3912C23.1895 36.9812 23.2829 36.5464 23.2829 36.0868V34.7824H29.3192V36.0868C29.3192 36.5463 29.4127 36.9812 29.5575 37.3912H23.0446ZM35.7867 32.1738H32.4071L34.1318 26.9564H35.7868C36.5001 26.9564 37.0803 27.5415 37.0803 28.2607V30.8694C37.0803 31.5886 36.5 32.1738 35.7867 32.1738Z" fill="#FF6B6B"/>
</svg>
