<svg width="37" height="41" viewBox="0 0 37 41" fill="none" xmlns="http://www.w3.org/2000/svg">
<path d="M35.9949 19.1408L18.7733 1.06842C18.0948 0.356445 17.2058 0 16.3169 0C15.4279 0 14.538 0.356445 13.8604 1.06842L4.42916 10.9627C3.07212 12.3867 3.07212 14.7398 4.42916 16.1637L5.9923 17.8488H9.59799L6.23245 14.2715C5.99667 14.0232 5.96174 13.7126 5.96174 13.5623C5.96174 13.412 5.99667 13.1124 6.23245 12.865L7.47772 11.5987L13.3958 17.8488H19.0729L10.3158 8.61424L15.6628 2.98167C15.8986 2.73427 16.1736 2.68754 16.3169 2.68754C16.4601 2.68754 16.7352 2.71869 16.9709 2.96518L34.1934 21.0348C34.43 21.2831 34.4658 21.569 34.4658 21.7202C34.4658 21.8705 34.4047 22.1582 34.1681 22.4065L33.1918 23.4062V27.1897L35.9722 24.2987C37.3284 22.872 37.3528 20.5648 35.9949 19.1408Z" fill="#FF6B6B"/>
<path d="M27.9173 19.5469H3.55941C1.64086 19.5469 0 21.1687 0 23.1819V32.849H31.3483V23.1819C31.3483 21.1687 29.8358 19.5469 27.9173 19.5469ZM8.51255 29.5576C7.83228 29.5576 7.21663 29.2735 6.76253 28.8154C6.30844 29.2735 5.69191 29.5576 5.01339 29.5576C3.61792 29.5576 2.4853 28.3709 2.4853 26.9039C2.4853 25.4388 3.61705 24.2512 5.01339 24.2512C5.69279 24.2512 6.30931 24.5344 6.76253 24.9925C7.21663 24.5344 7.83228 24.2512 8.51255 24.2512C9.90889 24.2512 11.0406 25.4388 11.0406 26.9039C11.0406 28.3709 9.90889 29.5576 8.51255 29.5576Z" fill="#FF6B6B"/>
<path d="M0 37.1714C0 39.1846 1.63998 40.8275 3.55941 40.8275H27.9173C29.8358 40.8275 31.3492 39.1846 31.3492 37.1714V36.957H0V37.1714Z" fill="#FF6B6B"/>
</svg>
