<svg width="41" height="35" viewBox="0 0 41 35" fill="none" xmlns="http://www.w3.org/2000/svg">
<path d="M28.2153 0C29.3572 3.87996e-05 30.4765 0.318002 31.4478 0.91827C32.4192 1.51854 33.2043 2.3774 33.715 3.39865L36.55 9.06649C37.0502 8.86151 37.5483 8.65447 38.032 8.41464C38.5186 8.17162 39.0818 8.13185 39.5977 8.30407C40.1136 8.47629 40.5399 8.8464 40.7829 9.33297C41.0259 9.81954 41.0657 10.3827 40.8935 10.8986C40.7213 11.4145 40.3512 11.8409 39.8646 12.0839C38.852 12.5881 38.3887 12.7439 38.3887 12.7439L40.3484 16.6653C40.7768 17.5201 40.9982 18.461 40.9982 19.4162V24.5982C40.9981 25.4634 40.8156 26.3189 40.4623 27.1087C40.1091 27.8985 39.5932 28.6049 38.9483 29.1817V31.7727C38.9483 32.5882 38.6244 33.3702 38.0477 33.9469C37.4711 34.5235 36.689 34.8475 35.8735 34.8475C35.0581 34.8475 34.276 34.5235 33.6993 33.9469C33.1227 33.3702 32.7988 32.5882 32.7988 31.7727V30.7478H8.20055V31.7727C8.20055 32.5882 7.87661 33.3702 7.29997 33.9469C6.72334 34.5235 5.94126 34.8475 5.12578 34.8475C4.3103 34.8475 3.52822 34.5235 2.95158 33.9469C2.37495 33.3702 2.051 32.5882 2.051 31.7727V29.1817C0.792393 28.0543 0.00115068 26.4185 0.00115068 24.5982V19.4162C0.00153376 18.4619 0.224002 17.5208 0.650953 16.6673L2.61061 12.7439C2.11395 12.5384 1.62316 12.319 1.13882 12.0859C0.8972 11.966 0.681615 11.7997 0.504419 11.5963C0.327223 11.393 0.1919 11.1566 0.106207 10.9009C0.020514 10.6452 -0.0138642 10.375 0.00504238 10.106C0.0239489 9.8369 0.0957685 9.57422 0.216385 9.33297C0.464367 8.84854 0.893114 8.48123 1.40986 8.31052C1.9266 8.13981 2.48978 8.17942 2.97753 8.42079C3.4613 8.6531 3.9519 8.86834 4.44933 9.06649L7.28427 3.39865C7.79507 2.3774 8.58012 1.51854 9.55148 0.91827C10.5228 0.318002 11.6422 3.87996e-05 12.784 0H28.2153ZM34.5083 14.1522C31.0236 15.2529 26.065 16.3988 20.4997 16.3988C14.9343 16.3988 9.97573 15.2509 6.49098 14.1522L4.31814 18.4979C4.17527 18.7829 4.10087 19.0973 4.10085 19.4162V24.5982C4.10085 25.1419 4.31682 25.6633 4.70124 26.0477C5.08566 26.4321 5.60705 26.6481 6.1507 26.6481H34.8486C35.3923 26.6481 35.9137 26.4321 36.2981 26.0477C36.6825 25.6633 36.8985 25.1419 36.8985 24.5982V19.4162C36.8981 19.098 36.8237 18.7843 36.6812 18.4999L34.5083 14.1522ZM11.2753 18.4487C12.0908 18.4487 12.8729 18.7726 13.4495 19.3492C14.0262 19.9259 14.3501 20.708 14.3501 21.5234C14.3501 22.3389 14.0262 23.121 13.4495 23.6976C12.8729 24.2743 12.0908 24.5982 11.2753 24.5982C10.4598 24.5982 9.67777 24.2743 9.10114 23.6976C8.5245 23.121 8.20055 22.3389 8.20055 21.5234C8.20055 20.708 8.5245 19.9259 9.10114 19.3492C9.67777 18.7726 10.4598 18.4487 11.2753 18.4487ZM29.724 18.4487C30.5395 18.4487 31.3216 18.7726 31.8982 19.3492C32.4748 19.9259 32.7988 20.708 32.7988 21.5234C32.7988 22.3389 32.4748 23.121 31.8982 23.6976C31.3216 24.2743 30.5395 24.5982 29.724 24.5982C28.9085 24.5982 28.1264 24.2743 27.5498 23.6976C26.9732 23.121 26.6492 22.3389 26.6492 21.5234C26.6492 20.708 26.9732 19.9259 27.5498 19.3492C28.1264 18.7726 28.9085 18.4487 29.724 18.4487ZM28.2153 4.0997H12.784C12.4034 4.0999 12.0304 4.20605 11.7068 4.40626C11.3831 4.60647 11.1216 4.89283 10.9515 5.23327L8.34814 10.4337C11.5213 11.3869 15.7973 12.2991 20.4997 12.2991C25.202 12.2991 29.478 11.3869 32.6491 10.4337L30.0479 5.23327C29.8778 4.89283 29.6162 4.60647 29.2925 4.40626C28.9689 4.20605 28.5959 4.0999 28.2153 4.0997Z" fill="#079521"/>
</svg>
