<svg width="39" height="30" viewBox="0 0 39 30" fill="none" xmlns="http://www.w3.org/2000/svg">
<path d="M10.574 14.1763C10.3516 15.2826 9.66748 16.2269 8.70904 16.7509C7.65805 17.3254 6.40445 17.3254 5.35346 16.7509C4.39502 16.2269 3.71092 15.2826 3.48847 14.1763L3.41135 13.7927C3.1824 12.6541 3.42809 11.4675 4.08694 10.5298L4.21186 10.3519C4.87087 9.41395 5.9178 8.8599 7.03125 8.8599C8.1447 8.8599 9.19163 9.41394 9.85064 10.3519L9.97556 10.5298C10.6344 11.4675 10.8801 12.6541 10.6512 13.7927L10.574 14.1763Z" fill="#079521"/>
<path d="M0.5 24.6182C0.5 25.2579 0.996219 25.7766 1.60834 25.7766H8.4032C8.84009 23.7479 10.0287 21.9744 11.7071 20.8525C11.405 20.6273 11.0726 20.4396 10.7149 20.2969L10.4644 20.197C8.2534 19.3152 5.8091 19.3152 3.59808 20.197L3.34762 20.2969C1.63288 20.9808 0.5 22.7 0.5 24.6182Z" fill="#079521"/>
<path d="M37.3917 25.7767H30.5968C30.16 23.7481 28.9714 21.9745 27.293 20.8526C27.5951 20.6274 27.9274 20.4397 28.2851 20.2971L28.5356 20.1972C30.7466 19.3153 33.1909 19.3153 35.4019 20.1972L35.6524 20.2971C37.3671 20.981 38.5 22.7001 38.5 24.6183C38.5 25.2581 38.0038 25.7767 37.3917 25.7767Z" fill="#079521"/>
<path d="M28.426 14.1764C28.6484 15.2827 29.3325 16.2271 30.291 16.751C31.3419 17.3255 32.5956 17.3255 33.6465 16.751C34.605 16.2271 35.2891 15.2827 35.5115 14.1764L35.5887 13.7929C35.8176 12.6543 35.5719 11.4677 34.9131 10.5299L34.7881 10.3521C34.1291 9.41408 33.0822 8.86003 31.9688 8.86003C30.8553 8.86003 29.8084 9.41408 29.1494 10.3521L29.0244 10.5299C28.3656 11.4677 28.1199 12.6543 28.3488 13.7929L28.426 14.1764Z" fill="#079521"/>
<path d="M28.8812 29.5H10.1188C9.06941 29.5 8.21875 28.6109 8.21875 27.5142C8.21875 24.2274 10.1641 21.2833 13.105 20.1192L13.5988 19.9237C17.4011 18.4186 21.5989 18.4186 25.4012 19.9237L25.895 20.1192C28.8359 21.2833 30.7812 24.2274 30.7812 27.5142C30.7812 28.6109 29.9306 29.5 28.8812 29.5Z" fill="#079521"/>
<path d="M16.6152 14.0345C18.4238 15.0157 20.5762 15.0157 22.3848 14.0345C24.0483 13.132 25.2376 11.4982 25.6258 9.58178L25.7474 8.98198C26.1459 7.01495 25.719 4.96373 24.5748 3.34737L24.3787 3.07034C23.2343 1.45367 21.4242 0.5 19.5 0.5C17.5758 0.5 15.7657 1.45367 14.6213 3.07034L14.4252 3.34738C13.281 4.96373 12.8541 7.01496 13.2526 8.98198L13.3742 9.58178C13.7624 11.4982 14.9517 13.132 16.6152 14.0345Z" fill="#079521"/>
<path d="M10.574 14.1763C10.3516 15.2826 9.66748 16.2269 8.70904 16.7509C7.65805 17.3254 6.40445 17.3254 5.35346 16.7509C4.39502 16.2269 3.71092 15.2826 3.48847 14.1763L3.41135 13.7927C3.1824 12.6541 3.42809 11.4675 4.08694 10.5298L4.21186 10.3519C4.87087 9.41395 5.9178 8.8599 7.03125 8.8599C8.1447 8.8599 9.19163 9.41394 9.85064 10.3519L9.97556 10.5298C10.6344 11.4675 10.8801 12.6541 10.6512 13.7927L10.574 14.1763Z" stroke="#079521" stroke-linecap="round" stroke-linejoin="round"/>
<path d="M0.5 24.6182C0.5 25.2579 0.996219 25.7766 1.60834 25.7766H8.4032C8.84009 23.7479 10.0287 21.9744 11.7071 20.8525C11.405 20.6273 11.0726 20.4396 10.7149 20.2969L10.4644 20.197C8.2534 19.3152 5.8091 19.3152 3.59808 20.197L3.34762 20.2969C1.63288 20.9808 0.5 22.7 0.5 24.6182Z" stroke="#079521" stroke-linecap="round" stroke-linejoin="round"/>
<path d="M37.3917 25.7767H30.5968C30.16 23.7481 28.9714 21.9745 27.293 20.8526C27.5951 20.6274 27.9274 20.4397 28.2851 20.2971L28.5356 20.1972C30.7466 19.3153 33.1909 19.3153 35.4019 20.1972L35.6524 20.2971C37.3671 20.981 38.5 22.7001 38.5 24.6183C38.5 25.2581 38.0038 25.7767 37.3917 25.7767Z" stroke="#079521" stroke-linecap="round" stroke-linejoin="round"/>
<path d="M28.426 14.1764C28.6484 15.2827 29.3325 16.2271 30.291 16.751C31.3419 17.3255 32.5956 17.3255 33.6465 16.751C34.605 16.2271 35.2891 15.2827 35.5115 14.1764L35.5887 13.7929C35.8176 12.6543 35.5719 11.4677 34.9131 10.5299L34.7881 10.3521C34.1291 9.41408 33.0822 8.86003 31.9688 8.86003C30.8553 8.86003 29.8084 9.41408 29.1494 10.3521L29.0244 10.5299C28.3656 11.4677 28.1199 12.6543 28.3488 13.7929L28.426 14.1764Z" stroke="#079521" stroke-linecap="round" stroke-linejoin="round"/>
<path d="M28.8812 29.5H10.1188C9.06941 29.5 8.21875 28.6109 8.21875 27.5142C8.21875 24.2274 10.1641 21.2833 13.105 20.1192L13.5988 19.9237C17.4011 18.4186 21.5989 18.4186 25.4012 19.9237L25.895 20.1192C28.8359 21.2833 30.7812 24.2274 30.7812 27.5142C30.7812 28.6109 29.9306 29.5 28.8812 29.5Z" stroke="#079521" stroke-linecap="round" stroke-linejoin="round"/>
<path d="M16.6152 14.0345C18.4238 15.0157 20.5762 15.0157 22.3848 14.0345C24.0483 13.132 25.2376 11.4982 25.6258 9.58178L25.7474 8.98198C26.1459 7.01495 25.719 4.96373 24.5748 3.34737L24.3787 3.07034C23.2343 1.45367 21.4242 0.5 19.5 0.5C17.5758 0.5 15.7657 1.45367 14.6213 3.07034L14.4252 3.34738C13.281 4.96373 12.8541 7.01496 13.2526 8.98198L13.3742 9.58178C13.7624 11.4982 14.9517 13.132 16.6152 14.0345Z" stroke="#079521" stroke-linecap="round" stroke-linejoin="round"/>
</svg>
