<svg width="37" height="37" viewBox="0 0 37 37" fill="none" xmlns="http://www.w3.org/2000/svg">
<path d="M15.0666 32.9876L5.42916 21.6217C5.29524 21.4511 5.16272 21.2793 5.0316 21.1065C3.38619 18.9375 2.49694 16.289 2.50001 13.5666C2.50001 10.2337 3.82398 7.03735 6.18067 4.68066C8.53736 2.32397 11.7337 1 15.0666 1C18.3994 1 21.5958 2.32397 23.9525 4.68066C26.3092 7.03735 27.6331 10.2337 27.6331 13.5666C27.6358 16.2877 26.747 18.9349 25.1027 21.1031L25.1015 21.1065C25.1015 21.1065 24.7588 21.5566 24.7074 21.6172L15.0666 32.9876ZM6.85604 19.7299C6.85604 19.7299 7.12222 20.0818 7.18277 20.1572L15.0666 29.4553L22.9607 20.1446C23.0109 20.0818 23.2782 19.7276 23.2794 19.7265C24.6243 17.9547 25.351 15.7909 25.3483 13.5666C25.3483 10.8397 24.2651 8.22448 22.3369 6.29628C20.4087 4.36808 17.7935 3.28483 15.0666 3.28483C12.3397 3.28483 9.72449 4.36808 7.79629 6.29628C5.86809 8.22448 4.78484 10.8397 4.78484 13.5666C4.78202 15.7923 5.50964 17.9575 6.85604 19.7299Z" fill="#1E272E"/>
<path d="M16.9241 15.4241L14.6393 15.4241L14.6393 6.28483L7.78483 6.28483L7.78483 15.4241L5.5 15.4241L5.5 6.28483C5.5 5.67886 5.74072 5.0977 6.16921 4.66921C6.5977 4.24072 7.17886 4 7.78483 4L14.6393 4C15.2453 4 15.8264 4.24072 16.2549 4.66921C16.6834 5.0977 16.9241 5.67886 16.9241 6.28483L16.9241 15.4241Z" fill="#1E272E"/>
<path d="M7.5 10.5697L9.78483 10.5697L9.78483 12.8545L7.5 12.8545L7.5 10.5697ZM7.5 6L9.78483 6L9.78483 8.28483L7.5 8.28483L7.5 6Z" fill="#1E272E"/>
</svg>
