<svg width="1296" height="803" viewBox="0 0 1296 803" fill="none" xmlns="http://www.w3.org/2000/svg">
<g opacity="0.3">
<path d="M1167.35 523.051L1164.03 397.338L1082.7 397.703L1082.85 426.375L1022.97 426.643L1021.3 112.583L906.162 113.1L906.821 236.712L872.277 236.867L871.948 175.14L782.111 175.543L783.715 476.576L657.041 477.145L656.474 370.787L577.047 371.144L575.818 140.543L477.79 140.983L478.61 294.717L386.48 295.131L388.245 626.318L316.863 626.638L316.004 465.366L242.292 465.696L241.739 361.925L163.441 362.276L163.016 282.602L75.867 322.926L77.0033 536.084L-15.1271 536.498L-15.3615 492.529L-138.432 493.081L-136.785 802.032L1295.73 796.199L1294.27 522.481L1167.35 523.051Z" fill="#EBEBEB"/>
<path d="M252.937 673.982L250.489 214.492L152.697 214.931L155.148 674.857C186.093 674.056 252.937 673.982 252.937 673.982Z" fill="#E6E6E6"/>
<path d="M163.781 674.855L162.433 422.116L-38.9724 423.02L-37.6279 675.2L163.781 674.855Z" fill="#FAFAFA"/>
<path d="M408.568 673.32L406.591 302.326L292.543 302.838L294.52 673.784L408.568 673.32Z" fill="#E0E0E0"/>
<path d="M315.107 317.289L301.279 317.351L301.41 342.072L315.239 342.01L315.107 317.289Z" fill="#FAFAFA"/>
<path d="M342.776 317.162L328.948 317.224L329.079 341.945L342.907 341.883L342.776 317.162Z" fill="#FAFAFA"/>
<path d="M370.441 317.032L356.613 317.094L356.745 341.815L370.573 341.753L370.441 317.032Z" fill="#FAFAFA"/>
<path d="M398.112 316.9L384.284 316.963L384.415 341.684L398.244 341.622L398.112 316.9Z" fill="#FAFAFA"/>
<path d="M315.322 358.751L301.493 358.813L301.625 383.534L315.453 383.472L315.322 358.751Z" fill="#FAFAFA"/>
<path d="M342.989 358.621L329.16 358.683L329.292 383.404L343.12 383.341L342.989 358.621Z" fill="#FAFAFA"/>
<path d="M370.656 358.491L356.828 358.553L356.959 383.274L370.788 383.212L370.656 358.491Z" fill="#FAFAFA"/>
<path d="M398.325 358.361L384.497 358.423L384.628 383.144L398.457 383.082L398.325 358.361Z" fill="#FAFAFA"/>
<path d="M315.533 400.18L301.704 400.242L301.836 424.963L315.664 424.9L315.533 400.18Z" fill="#FAFAFA"/>
<path d="M343.201 400.05L329.373 400.112L329.505 424.833L343.333 424.771L343.201 400.05Z" fill="#FAFAFA"/>
<path d="M370.867 399.92L357.039 399.983L357.17 424.703L370.999 424.641L370.867 399.92Z" fill="#FAFAFA"/>
<path d="M398.538 399.79L384.709 399.852L384.841 424.573L398.669 424.511L398.538 399.79Z" fill="#FAFAFA"/>
<path d="M315.745 441.607L301.917 441.67L302.049 466.391L315.877 466.329L315.745 441.607Z" fill="#FAFAFA"/>
<path d="M343.41 441.479L329.582 441.541L329.714 466.262L343.542 466.2L343.41 441.479Z" fill="#FAFAFA"/>
<path d="M371.081 441.349L357.253 441.411L357.385 466.132L371.213 466.07L371.081 441.349Z" fill="#FAFAFA"/>
<path d="M398.749 441.219L384.92 441.281L385.052 466.002L398.88 465.94L398.749 441.219Z" fill="#FAFAFA"/>
<path d="M315.954 483.035L302.126 483.097L302.258 507.818L316.086 507.756L315.954 483.035Z" fill="#FAFAFA"/>
<path d="M343.623 482.906L329.795 482.968L329.927 507.689L343.755 507.627L343.623 482.906Z" fill="#FAFAFA"/>
<path d="M371.291 482.776L357.462 482.838L357.594 507.559L371.422 507.497L371.291 482.776Z" fill="#FAFAFA"/>
<path d="M398.961 482.647L385.133 482.709L385.265 507.429L399.093 507.367L398.961 482.647Z" fill="#FAFAFA"/>
<path d="M316.167 524.466L302.339 524.528L302.471 549.249L316.299 549.187L316.167 524.466Z" fill="#FAFAFA"/>
<path d="M343.834 524.336L330.006 524.399L330.138 549.119L343.966 549.057L343.834 524.336Z" fill="#FAFAFA"/>
<path d="M371.505 524.205L357.677 524.267L357.809 548.988L371.637 548.926L371.505 524.205Z" fill="#FAFAFA"/>
<path d="M399.17 524.074L385.342 524.136L385.474 548.857L399.302 548.795L399.17 524.074Z" fill="#FAFAFA"/>
<path d="M316.38 565.893L302.552 565.955L302.684 590.675L316.512 590.613L316.38 565.893Z" fill="#FAFAFA"/>
<path d="M344.047 565.764L330.219 565.826L330.351 590.547L344.179 590.485L344.047 565.764Z" fill="#FAFAFA"/>
<path d="M371.712 565.635L357.884 565.697L358.016 590.418L371.844 590.356L371.712 565.635Z" fill="#FAFAFA"/>
<path d="M399.383 565.504L385.555 565.566L385.687 590.287L399.515 590.225L399.383 565.504Z" fill="#FAFAFA"/>
<path d="M316.591 607.353L302.763 607.415L302.895 632.136L316.723 632.074L316.591 607.353Z" fill="#FAFAFA"/>
<path d="M344.26 607.223L330.432 607.285L330.564 632.006L344.392 631.944L344.26 607.223Z" fill="#FAFAFA"/>
<path d="M371.925 607.094L358.097 607.156L358.229 631.877L372.057 631.815L371.925 607.094Z" fill="#FAFAFA"/>
<path d="M399.596 606.964L385.768 607.026L385.9 631.747L399.728 631.685L399.596 606.964Z" fill="#FAFAFA"/>
<path d="M805.158 671.651L802.897 247.625L566.361 248.687L568.622 672.856C568.622 672.856 803.346 671.865 805.158 671.651Z" fill="#F5F5F5"/>
<path d="M612.894 265.415L584.214 265.544L584.365 294.02L613.046 293.891L612.894 265.415Z" fill="#E6E6E6"/>
<path d="M670.307 265.148L641.626 265.276L641.778 293.752L670.459 293.624L670.307 265.148Z" fill="#E6E6E6"/>
<path d="M727.677 264.876L698.997 265.005L699.149 293.48L727.829 293.352L727.677 264.876Z" fill="#E6E6E6"/>
<path d="M785.088 264.608L756.408 264.737L756.56 293.213L785.24 293.084L785.088 264.608Z" fill="#E6E6E6"/>
<path d="M613.138 313.182L584.458 313.311L584.61 341.787L613.29 341.658L613.138 313.182Z" fill="#E6E6E6"/>
<path d="M670.551 312.912L641.871 313.041L642.022 341.517L670.703 341.388L670.551 312.912Z" fill="#E6E6E6"/>
<path d="M727.921 312.643L699.241 312.772L699.393 341.248L728.073 341.119L727.921 312.643Z" fill="#E6E6E6"/>
<path d="M785.334 312.374L756.654 312.503L756.806 340.978L785.486 340.85L785.334 312.374Z" fill="#E6E6E6"/>
<path d="M613.384 360.915L584.704 361.044L584.856 389.52L613.536 389.391L613.384 360.915Z" fill="#E6E6E6"/>
<path d="M670.793 360.648L642.113 360.776L642.265 389.252L670.945 389.124L670.793 360.648Z" fill="#E6E6E6"/>
<path d="M728.169 360.378L699.489 360.506L699.641 388.982L728.321 388.854L728.169 360.378Z" fill="#E6E6E6"/>
<path d="M785.577 360.107L756.896 360.236L757.048 388.712L785.728 388.583L785.577 360.107Z" fill="#E6E6E6"/>
<path d="M613.629 408.65L584.948 408.778L585.1 437.254L613.78 437.126L613.629 408.65Z" fill="#E6E6E6"/>
<path d="M671.039 408.38L642.359 408.509L642.511 436.985L671.191 436.856L671.039 408.38Z" fill="#E6E6E6"/>
<path d="M728.413 408.112L699.733 408.241L699.885 436.717L728.565 436.588L728.413 408.112Z" fill="#E6E6E6"/>
<path d="M785.823 407.843L757.142 407.971L757.294 436.447L785.974 436.319L785.823 407.843Z" fill="#E6E6E6"/>
<path d="M613.871 456.415L585.19 456.544L585.342 485.02L614.023 484.891L613.871 456.415Z" fill="#E6E6E6"/>
<path d="M671.281 456.147L642.601 456.276L642.753 484.751L671.433 484.622L671.281 456.147Z" fill="#E6E6E6"/>
<path d="M728.656 455.878L699.975 456.006L700.127 484.482L728.807 484.353L728.656 455.878Z" fill="#E6E6E6"/>
<path d="M786.063 455.608L757.382 455.737L757.534 484.213L786.215 484.084L786.063 455.608Z" fill="#E6E6E6"/>
<path d="M614.117 504.15L585.436 504.278L585.588 532.754L614.269 532.625L614.117 504.15Z" fill="#E6E6E6"/>
<path d="M671.529 503.88L642.849 504.009L643.001 532.485L671.681 532.356L671.529 503.88Z" fill="#E6E6E6"/>
<path d="M728.902 503.61L700.221 503.739L700.373 532.215L729.053 532.086L728.902 503.61Z" fill="#E6E6E6"/>
<path d="M786.309 503.343L757.628 503.471L757.78 531.947L786.461 531.818L786.309 503.343Z" fill="#E6E6E6"/>
<path d="M614.359 551.916L585.678 552.045L585.83 580.52L614.511 580.392L614.359 551.916Z" fill="#E6E6E6"/>
<path d="M671.766 551.647L643.085 551.776L643.237 580.251L671.918 580.123L671.766 551.647Z" fill="#E6E6E6"/>
<path d="M729.144 551.378L700.464 551.507L700.615 579.983L729.296 579.854L729.144 551.378Z" fill="#E6E6E6"/>
<path d="M786.551 551.108L757.871 551.237L758.022 579.713L786.703 579.584L786.551 551.108Z" fill="#E6E6E6"/>
<path d="M614.605 599.65L585.925 599.779L586.076 628.255L614.757 628.126L614.605 599.65Z" fill="#E6E6E6"/>
<path d="M672.014 599.382L643.333 599.511L643.485 627.987L672.166 627.858L672.014 599.382Z" fill="#E6E6E6"/>
<path d="M729.39 599.111L700.71 599.239L700.862 627.715L729.542 627.587L729.39 599.111Z" fill="#E6E6E6"/>
<path d="M786.797 598.843L758.117 598.971L758.269 627.447L786.949 627.319L786.797 598.843Z" fill="#E6E6E6"/>
<path d="M197.335 245.972L170.906 246.091L171.046 272.331L197.475 272.213L197.335 245.972Z" fill="#FAFAFA"/>
<path d="M197.558 289.958L171.129 290.076L171.269 316.317L197.698 316.198L197.558 289.958Z" fill="#FAFAFA"/>
<path d="M197.785 333.974L171.356 334.093L171.496 360.333L197.924 360.215L197.785 333.974Z" fill="#FAFAFA"/>
<path d="M198.011 377.964L171.582 378.082L171.722 404.322L198.151 404.204L198.011 377.964Z" fill="#FAFAFA"/>
<path d="M198.236 421.949L171.807 422.068L171.947 448.308L198.376 448.189L198.236 421.949Z" fill="#FAFAFA"/>
<path d="M198.458 465.965L172.03 466.084L172.169 492.325L198.598 492.206L198.458 465.965Z" fill="#FAFAFA"/>
<path d="M198.685 509.955L172.256 510.073L172.396 536.314L198.825 536.195L198.685 509.955Z" fill="#FAFAFA"/>
<path d="M198.91 553.972L172.481 554.09L172.621 580.331L199.049 580.212L198.91 553.972Z" fill="#FAFAFA"/>
<path d="M232.691 245.804L206.262 245.922L206.402 272.163L232.831 272.044L232.691 245.804Z" fill="#FAFAFA"/>
<path d="M232.918 289.792L206.488 289.91L206.628 316.151L233.058 316.032L232.918 289.792Z" fill="#FAFAFA"/>
<path d="M233.142 333.809L206.713 333.928L206.853 360.168L233.282 360.05L233.142 333.809Z" fill="#FAFAFA"/>
<path d="M233.371 377.797L206.941 377.916L207.081 404.156L233.511 404.038L233.371 377.797Z" fill="#FAFAFA"/>
<path d="M233.592 421.784L207.162 421.902L207.302 448.143L233.732 448.024L233.592 421.784Z" fill="#FAFAFA"/>
<path d="M233.816 465.8L207.387 465.919L207.527 492.16L233.956 492.041L233.816 465.8Z" fill="#FAFAFA"/>
<path d="M234.045 509.788L207.615 509.906L207.755 536.147L234.185 536.028L234.045 509.788Z" fill="#FAFAFA"/>
<path d="M234.267 553.804L207.838 553.923L207.978 580.164L234.407 580.045L234.267 553.804Z" fill="#FAFAFA"/>
<path d="M532.078 44.9685L503.398 45.0973L503.55 73.5729L532.23 73.4442L532.078 44.9685Z" fill="#FAFAFA"/>
<path d="M532.32 92.7024L503.64 92.8312L503.792 121.307L532.472 121.178L532.32 92.7024Z" fill="#FAFAFA"/>
<path d="M532.549 137.185L503.869 137.314L504.02 165.79L532.701 165.661L532.549 137.185Z" fill="#FAFAFA"/>
<path d="M532.791 184.919L504.111 185.048L504.263 213.524L532.943 213.395L532.791 184.919Z" fill="#FAFAFA"/>
<path d="M533.035 232.653L504.355 232.781L504.507 261.257L533.187 261.129L533.035 232.653Z" fill="#FAFAFA"/>
<path d="M533.279 280.419L504.599 280.547L504.751 309.023L533.431 308.895L533.279 280.419Z" fill="#FAFAFA"/>
<path d="M533.526 328.153L504.845 328.282L504.997 356.758L533.677 356.629L533.526 328.153Z" fill="#FAFAFA"/>
<path d="M533.768 375.918L505.087 376.047L505.239 404.522L533.92 404.393L533.768 375.918Z" fill="#FAFAFA"/>
<path d="M962.777 1.54715L934.097 1.67591L934.249 30.1516L962.929 30.0228L962.777 1.54715Z" fill="#FAFAFA"/>
<path d="M963.022 49.2806L934.341 49.4093L934.493 77.8852L963.174 77.7565L963.022 49.2806Z" fill="#FAFAFA"/>
<path d="M963.266 97.0462L934.585 97.1749L934.737 125.651L963.418 125.522L963.266 97.0462Z" fill="#FAFAFA"/>
<path d="M963.51 144.78L934.83 144.909L934.981 173.385L963.662 173.256L963.51 144.78Z" fill="#FAFAFA"/>
<path d="M963.75 192.546L935.07 192.674L935.222 221.15L963.902 221.022L963.75 192.546Z" fill="#FAFAFA"/>
<path d="M963.996 240.28L935.316 240.409L935.468 268.884L964.148 268.756L963.996 240.28Z" fill="#FAFAFA"/>
<path d="M964.24 288.047L935.56 288.176L935.712 316.652L964.392 316.523L964.24 288.047Z" fill="#FAFAFA"/>
<path d="M964.485 335.781L935.804 335.909L935.956 364.385L964.637 364.256L964.485 335.781Z" fill="#FAFAFA"/>
<path d="M1169.35 219.926L996.67 220.702L999.07 670.901L1171.75 670.125L1169.35 219.926Z" fill="#E6E6E6"/>
<path d="M1072.97 242.575L1022.34 242.802L1022.49 271.282L1073.12 271.055L1072.97 242.575Z" fill="#FAFAFA"/>
<path d="M1073.22 290.343L1022.58 290.57L1022.74 319.05L1073.37 318.823L1073.22 290.343Z" fill="#FAFAFA"/>
<path d="M1073.46 338.075L1022.83 338.302L1022.98 366.782L1073.61 366.555L1073.46 338.075Z" fill="#FAFAFA"/>
<path d="M1073.7 385.842L1023.07 386.069L1023.22 414.549L1073.85 414.322L1073.7 385.842Z" fill="#FAFAFA"/>
<path d="M1073.94 433.577L1023.31 433.804L1023.46 462.285L1074.1 462.057L1073.94 433.577Z" fill="#FAFAFA"/>
<path d="M1074.19 481.309L1023.56 481.537L1023.71 510.017L1074.34 509.79L1074.19 481.309Z" fill="#FAFAFA"/>
<path d="M1074.43 529.076L1023.8 529.303L1023.95 557.784L1074.59 557.556L1074.43 529.076Z" fill="#FAFAFA"/>
<path d="M1074.68 576.809L1024.05 577.037L1024.2 605.517L1074.83 605.289L1074.68 576.809Z" fill="#FAFAFA"/>
<path d="M1140.72 242.258L1090.08 242.485L1090.24 270.965L1140.87 270.738L1140.72 242.258Z" fill="#FAFAFA"/>
<path d="M1140.97 290.023L1090.33 290.251L1090.49 318.731L1141.12 318.503L1140.97 290.023Z" fill="#FAFAFA"/>
<path d="M1141.21 337.759L1090.58 337.986L1090.73 366.466L1141.36 366.239L1141.21 337.759Z" fill="#FAFAFA"/>
<path d="M1141.45 385.524L1090.82 385.752L1090.97 414.232L1141.61 414.005L1141.45 385.524Z" fill="#FAFAFA"/>
<path d="M1141.7 433.257L1091.06 433.484L1091.22 461.964L1141.85 461.737L1141.7 433.257Z" fill="#FAFAFA"/>
<path d="M1141.94 480.992L1091.3 481.219L1091.46 509.7L1142.09 509.472L1141.94 480.992Z" fill="#FAFAFA"/>
<path d="M1142.18 528.758L1091.55 528.985L1091.7 557.466L1142.33 557.239L1142.18 528.758Z" fill="#FAFAFA"/>
<path d="M1142.43 576.494L1091.8 576.721L1091.95 605.201L1142.58 604.974L1142.43 576.494Z" fill="#FAFAFA"/>
<path d="M904.762 671.194L903.101 359.557L827.812 359.896L829.472 671.5L904.762 671.194Z" fill="#E0E0E0"/>
<path d="M842.725 372.453L833.592 372.494L833.705 393.715L842.838 393.674L842.725 372.453Z" fill="#FAFAFA"/>
<path d="M861 372.366L851.867 372.407L851.98 393.628L861.113 393.587L861 372.366Z" fill="#FAFAFA"/>
<path d="M879.236 372.283L870.104 372.324L870.217 393.545L879.35 393.504L879.236 372.283Z" fill="#FAFAFA"/>
<path d="M897.504 372.195L888.371 372.236L888.484 393.457L897.617 393.416L897.504 372.195Z" fill="#FAFAFA"/>
<path d="M842.907 408.049L833.774 408.09L833.887 429.31L843.02 429.269L842.907 408.049Z" fill="#FAFAFA"/>
<path d="M861.183 407.962L852.051 408.003L852.164 429.223L861.297 429.182L861.183 407.962Z" fill="#FAFAFA"/>
<path d="M879.424 407.878L870.291 407.919L870.404 429.139L879.537 429.098L879.424 407.878Z" fill="#FAFAFA"/>
<path d="M897.685 407.791L888.552 407.832L888.666 429.053L897.799 429.012L897.685 407.791Z" fill="#FAFAFA"/>
<path d="M843.088 443.644L833.955 443.685L834.068 464.905L843.201 464.864L843.088 443.644Z" fill="#FAFAFA"/>
<path d="M861.365 443.558L852.232 443.599L852.346 464.819L861.478 464.778L861.365 443.558Z" fill="#FAFAFA"/>
<path d="M879.606 443.474L870.473 443.515L870.586 464.735L879.719 464.694L879.606 443.474Z" fill="#FAFAFA"/>
<path d="M897.867 443.387L888.734 443.428L888.847 464.648L897.98 464.607L897.867 443.387Z" fill="#FAFAFA"/>
<path d="M843.272 479.239L834.139 479.28L834.252 500.501L843.385 500.46L843.272 479.239Z" fill="#FAFAFA"/>
<path d="M861.549 479.153L852.416 479.194L852.529 500.415L861.662 500.374L861.549 479.153Z" fill="#FAFAFA"/>
<path d="M879.785 479.069L870.653 479.11L870.766 500.331L879.898 500.29L879.785 479.069Z" fill="#FAFAFA"/>
<path d="M898.051 478.983L888.918 479.024L889.031 500.244L898.164 500.203L898.051 478.983Z" fill="#FAFAFA"/>
<path d="M843.453 514.868L834.321 514.909L834.434 536.129L843.567 536.088L843.453 514.868Z" fill="#FAFAFA"/>
<path d="M861.73 514.782L852.598 514.823L852.711 536.044L861.843 536.003L861.73 514.782Z" fill="#FAFAFA"/>
<path d="M879.971 514.696L870.838 514.737L870.951 535.958L880.084 535.917L879.971 514.696Z" fill="#FAFAFA"/>
<path d="M898.234 514.61L889.101 514.651L889.214 535.871L898.347 535.83L898.234 514.61Z" fill="#FAFAFA"/>
<path d="M843.635 550.463L834.502 550.504L834.615 571.724L843.748 571.683L843.635 550.463Z" fill="#FAFAFA"/>
<path d="M861.908 550.378L852.775 550.419L852.889 571.639L862.021 571.598L861.908 550.378Z" fill="#FAFAFA"/>
<path d="M880.152 550.292L871.02 550.333L871.133 571.554L880.266 571.513L880.152 550.292Z" fill="#FAFAFA"/>
<path d="M898.416 550.206L889.283 550.247L889.396 571.468L898.529 571.427L898.416 550.206Z" fill="#FAFAFA"/>
<path d="M843.815 586.06L834.682 586.101L834.795 607.322L843.928 607.281L843.815 586.06Z" fill="#FAFAFA"/>
<path d="M862.094 585.973L852.961 586.014L853.074 607.235L862.207 607.194L862.094 585.973Z" fill="#FAFAFA"/>
<path d="M880.332 585.888L871.199 585.929L871.313 607.149L880.445 607.108L880.332 585.888Z" fill="#FAFAFA"/>
<path d="M898.598 585.802L889.465 585.843L889.578 607.063L898.711 607.022L898.598 585.802Z" fill="#FAFAFA"/>
<path d="M844 621.653L834.867 621.694L834.981 642.915L844.113 642.874L844 621.653Z" fill="#FAFAFA"/>
<path d="M862.271 621.569L853.139 621.61L853.252 642.831L862.384 642.79L862.271 621.569Z" fill="#FAFAFA"/>
<path d="M880.516 621.484L871.383 621.525L871.496 642.745L880.629 642.704L880.516 621.484Z" fill="#FAFAFA"/>
<path d="M898.777 621.398L889.644 621.439L889.757 642.659L898.89 642.618L898.777 621.398Z" fill="#FAFAFA"/>
<path d="M0.758272 433.434L-23.665 433.544L-23.57 451.362L0.853267 451.253L0.758272 433.434Z" fill="#E6E6E6"/>
<path d="M49.6142 433.206L25.1909 433.316L25.2859 451.134L49.7092 451.024L49.6142 433.206Z" fill="#E6E6E6"/>
<path d="M98.4296 432.978L74.0066 433.088L74.1016 450.906L98.5246 450.796L98.4296 432.978Z" fill="#E6E6E6"/>
<path d="M147.29 432.749L122.866 432.859L122.961 450.677L147.385 450.567L147.29 432.749Z" fill="#E6E6E6"/>
<path d="M0.910615 463.293L-23.5127 463.402L-23.4177 481.221L1.00561 481.111L0.910615 463.293Z" fill="#E6E6E6"/>
<path d="M49.7666 463.063L25.3433 463.173L25.4383 480.991L49.8616 480.882L49.7666 463.063Z" fill="#E6E6E6"/>
<path d="M98.5819 462.835L74.1589 462.945L74.2539 480.763L98.6769 480.653L98.5819 462.835Z" fill="#E6E6E6"/>
<path d="M147.44 462.605L123.016 462.715L123.111 480.533L147.535 480.424L147.44 462.605Z" fill="#E6E6E6"/>
<path d="M1.06687 493.151L-23.3564 493.261L-23.2614 511.079L1.16186 510.969L1.06687 493.151Z" fill="#E6E6E6"/>
<path d="M49.915 492.921L25.4917 493.03L25.5867 510.849L50.01 510.739L49.915 492.921Z" fill="#E6E6E6"/>
<path d="M98.7382 492.693L74.3152 492.802L74.4102 510.621L98.8332 510.511L98.7382 492.693Z" fill="#E6E6E6"/>
<path d="M147.594 492.464L123.171 492.573L123.266 510.392L147.689 510.282L147.594 492.464Z" fill="#E6E6E6"/>
<path d="M1.2153 523.008L-23.208 523.117L-23.113 540.935L1.3103 540.826L1.2153 523.008Z" fill="#E6E6E6"/>
<path d="M50.0713 522.78L25.6479 522.889L25.7429 540.707L50.1663 540.598L50.0713 522.78Z" fill="#E6E6E6"/>
<path d="M98.8866 522.55L74.4636 522.66L74.5586 540.478L98.9816 540.368L98.8866 522.55Z" fill="#E6E6E6"/>
<path d="M147.747 522.322L123.323 522.432L123.418 540.25L147.842 540.14L147.747 522.322Z" fill="#E6E6E6"/>
<path d="M1.36764 552.834L-23.0557 552.943L-22.9607 570.762L1.46264 570.652L1.36764 552.834Z" fill="#E6E6E6"/>
<path d="M50.2236 552.605L25.8003 552.714L25.8953 570.533L50.3186 570.423L50.2236 552.605Z" fill="#E6E6E6"/>
<path d="M99.039 552.376L74.616 552.486L74.711 570.304L99.134 570.195L99.039 552.376Z" fill="#E6E6E6"/>
<path d="M147.901 552.146L123.477 552.256L123.572 570.074L147.996 569.965L147.901 552.146Z" fill="#E6E6E6"/>
<path d="M1.5239 582.692L-22.8994 582.802L-22.8044 600.62L1.61889 600.51L1.5239 582.692Z" fill="#E6E6E6"/>
<path d="M50.372 582.463L25.9487 582.573L26.0437 600.391L50.467 600.281L50.372 582.463Z" fill="#E6E6E6"/>
<path d="M99.1952 582.234L74.7722 582.343L74.8672 600.162L99.2902 600.052L99.1952 582.234Z" fill="#E6E6E6"/>
<path d="M148.051 582.005L123.628 582.114L123.723 599.933L148.146 599.823L148.051 582.005Z" fill="#E6E6E6"/>
<path d="M1.67233 612.548L-22.751 612.657L-22.656 630.476L1.76733 630.366L1.67233 612.548Z" fill="#E6E6E6"/>
<path d="M50.5283 612.321L26.105 612.43L26.2 630.248L50.6233 630.139L50.5283 612.321Z" fill="#E6E6E6"/>
<path d="M99.3476 612.091L74.9246 612.201L75.0196 630.019L99.4426 629.909L99.3476 612.091Z" fill="#E6E6E6"/>
<path d="M148.204 611.863L123.78 611.973L123.875 629.791L148.299 629.681L148.204 611.863Z" fill="#E6E6E6"/>
</g>
</svg>
