<svg width="24" height="24" viewBox="0 0 24 24" fill="none" xmlns="http://www.w3.org/2000/svg">
<path d="M6.86832 23.9987V14.8312C6.33867 14.7649 5.84736 14.7318 5.37051 14.6406C3.84657 14.3541 2.48253 13.6252 1.50586 12.5757C0.529188 11.5262 -0.00107345 10.2194 0.00355592 8.87328C-0.0044449 7.01299 0.00355592 5.15269 0.00355592 3.2924V2.99131H3.4375V3.38909C3.4375 5.15684 3.4375 6.92463 3.4375 8.69238C3.4057 9.11294 3.47829 9.53448 3.65041 9.92888C3.82254 10.3233 4.09029 10.6814 4.43565 10.9793C4.78102 11.2773 5.19611 11.5082 5.65316 11.6565C6.1102 11.8049 6.59866 11.8674 7.08592 11.8398C8.45993 11.8398 9.83402 11.8398 11.208 11.8398C13.1538 11.8398 15.1 11.8398 17.0469 11.8398C18.69 11.8115 20.2894 12.2976 21.5493 13.2083C22.8092 14.119 23.6445 15.3926 23.9005 16.7936C23.9651 17.1128 23.9971 17.4363 23.9964 17.7604C24.0044 19.6317 23.9964 21.5044 23.9964 23.3757C23.9964 23.4544 23.9853 23.5332 23.9757 23.6354H20.5609V23.2584C20.5609 21.4092 20.5753 19.5613 20.5609 17.7134C20.5554 16.977 20.2294 16.2692 19.6476 15.7304C19.0657 15.1917 18.2706 14.8613 17.4198 14.8049C17.343 14.8049 17.2598 14.8049 17.127 14.8049V24L6.86832 23.9987ZM11.7425 8.87049C10.5772 8.81554 9.46761 8.4222 8.59408 7.75429C7.72056 7.08637 7.13429 6.18312 6.93063 5.19136C6.70366 4.03946 7.01077 2.85676 7.7856 1.89862C8.56044 0.940473 9.74083 0.283763 11.0719 0.0703847C11.1599 0.0516648 11.2465 0.0281887 11.3311 0H12.6113C13.1909 0.128201 13.7593 0.291578 14.3122 0.4889C15.3633 0.940673 16.2013 1.69176 16.6848 2.61528C17.1682 3.53879 17.2672 4.57805 16.9653 5.55736C16.6774 6.51291 16.028 7.35809 15.1199 7.95861C14.2119 8.55913 13.0975 8.8806 11.9536 8.87193L11.7425 8.87049Z" fill="#1E272E"/>
</svg>
