<svg width="7" height="8" viewBox="0 0 7 8" fill="none" xmlns="http://www.w3.org/2000/svg">
<path fill-rule="evenodd" clip-rule="evenodd" d="M4.875 0H1.875C0.839468 0 0 0.883651 0 1.97369V5.13159C0 6.22161 0.839468 7.10527 1.875 7.10527H4.875C5.91052 7.10527 6.75 6.22161 6.75 5.13159V1.97369C6.75 0.883651 5.91052 0 4.875 0ZM6.09375 5.13159C6.09169 5.83919 5.54722 6.41231 4.875 6.41448H1.875C1.20276 6.41231 0.658309 5.83919 0.65625 5.13159V1.97369C0.658309 1.26606 1.20276 0.692958 1.875 0.690791H4.875C5.54722 0.692958 6.09169 1.26606 6.09375 1.97369V5.13159ZM5.15625 2.07237C5.36336 2.07237 5.53125 1.89564 5.53125 1.67763C5.53125 1.45963 5.36336 1.2829 5.15625 1.2829C4.94914 1.2829 4.78125 1.45963 4.78125 1.67763C4.78125 1.89564 4.94914 2.07237 5.15625 2.07237ZM3.375 1.77632C2.44302 1.77632 1.6875 2.5716 1.6875 3.55263C1.6875 4.53368 2.44302 5.32896 3.375 5.32896C4.30699 5.32896 5.0625 4.53368 5.0625 3.55263C5.06351 3.0812 4.88602 2.62878 4.56934 2.29543C4.25265 1.96208 3.82286 1.77527 3.375 1.77632ZM2.34375 3.55263C2.34375 4.15217 2.80545 4.63817 3.375 4.63817C3.94455 4.63817 4.40625 4.15217 4.40625 3.55263C4.40625 2.95311 3.94455 2.46711 3.375 2.46711C2.80545 2.46711 2.34375 2.95311 2.34375 3.55263Z" fill="#F9FAFB"/>
</svg>
