<svg width="8" height="6" viewBox="0 0 8 6" fill="none" xmlns="http://www.w3.org/2000/svg">
<path d="M7.00743 0.85747C6.96673 0.692983 6.88717 0.542975 6.7767 0.422381C6.66619 0.301783 6.52863 0.214802 6.3777 0.170095C5.81802 0.00272716 3.57895 2.95772e-06 3.57895 2.95772e-06C3.57895 2.95772e-06 1.34023 -0.00272201 0.780191 0.15725C0.629345 0.204013 0.49207 0.292223 0.381543 0.413413C0.271015 0.534603 0.190951 0.6847 0.149033 0.849296C0.0014301 1.45883 5.23667e-07 2.72303 5.23667e-07 2.72303C5.23667e-07 2.72303 -0.00142907 3.99347 0.145101 4.59677C0.227302 4.93034 0.468543 5.19384 0.775187 5.28375C1.34059 5.45112 3.57359 5.45384 3.57359 5.45384C3.57359 5.45384 5.81266 5.45657 6.37234 5.29699C6.52334 5.25234 6.66101 5.16558 6.77177 5.04523C6.88256 4.92489 6.96254 4.77511 7.00386 4.61078C7.15182 4.00164 7.15289 2.73782 7.15289 2.73782C7.15289 2.73782 7.16004 1.467 7.00743 0.85747ZM2.86273 3.89421L2.86451 1.55886L4.72547 2.72848L2.86273 3.89421Z" fill="#F9FAFB"/>
</svg>
