<svg width="7" height="8" viewBox="0 0 7 8" fill="none" xmlns="http://www.w3.org/2000/svg">
<path fill-rule="evenodd" clip-rule="evenodd" d="M0.5625 0C0.251839 0 0 0.265095 0 0.592107V6.51317C0 6.84017 0.251839 7.10527 0.5625 7.10527H6.1875C6.49815 7.10527 6.75 6.84017 6.75 6.51317V0.592107C6.75 0.265095 6.49815 0 6.1875 0H0.5625ZM2.07029 1.58002C2.0724 1.95749 1.80398 2.19008 1.48546 2.18841C1.1854 2.18674 0.923839 1.93529 0.925421 1.58058C0.927004 1.24696 1.17749 0.97885 1.50286 0.986623C1.83298 0.994395 2.0724 1.24919 2.07029 1.58002ZM3.47989 2.66912H2.53489H2.53436V6.04801H3.53314V5.96918C3.53314 5.81922 3.53302 5.66922 3.53291 5.51918C3.53261 5.119 3.53227 4.71838 3.53422 4.31831C3.53475 4.22117 3.53895 4.12015 3.56269 4.02743C3.65179 3.68105 3.94766 3.45734 4.27777 3.51233C4.48976 3.54726 4.63001 3.67663 4.68907 3.88702C4.72549 4.01855 4.74184 4.1601 4.74341 4.29723C4.74769 4.71076 4.74709 5.12429 4.74649 5.53785C4.74626 5.68383 4.74604 5.82988 4.74604 5.97585V6.04746H5.748V5.96642C5.748 5.788 5.74793 5.60961 5.74781 5.43123C5.74763 4.98538 5.7474 4.53952 5.74853 4.09351C5.74905 3.892 5.7285 3.69329 5.68155 3.49844C5.61142 3.20866 5.46641 2.96886 5.23069 2.79569C5.06351 2.67245 4.87999 2.59307 4.67486 2.58419C4.6515 2.58316 4.62795 2.58183 4.60429 2.58048C4.4994 2.57451 4.39279 2.56845 4.29251 2.58974C4.00564 2.65024 3.7536 2.78846 3.56321 3.03213C3.54109 3.06008 3.51945 3.08846 3.48716 3.13082L3.47989 3.14041V2.66912ZM1.00561 6.04911H1.99966V2.67132H1.00561V6.04911Z" fill="#F9FAFB"/>
</svg>
