<svg width="62" height="53" viewBox="0 0 62 53" fill="none" xmlns="http://www.w3.org/2000/svg">
<path d="M42.4407 0C44.1583 5.83614e-05 45.8419 0.47833 47.303 1.38124C48.7641 2.28415 49.945 3.57603 50.7133 5.11217L54.9776 13.6376C55.7299 13.3293 56.4791 13.0178 57.2068 12.6571C57.9387 12.2915 58.7858 12.2317 59.5618 12.4908C60.3378 12.7498 60.9791 13.3065 61.3446 14.0384C61.7102 14.7703 61.77 15.6174 61.5109 16.3934C61.2519 17.1694 60.6952 17.8107 59.9633 18.1763C58.4401 18.9348 57.7433 19.1691 57.7433 19.1691L60.691 25.0675C61.3354 26.3533 61.6684 27.7685 61.6684 29.2053V37C61.6684 38.3014 61.3937 39.5882 60.8624 40.7762C60.3311 41.9642 59.5551 43.0267 58.5851 43.8943V47.7917C58.5851 49.0183 58.0978 50.1947 57.2304 51.062C56.3631 51.9294 55.1867 52.4167 53.9601 52.4167C52.7334 52.4167 51.557 51.9294 50.6897 51.062C49.8223 50.1947 49.3351 49.0183 49.3351 47.7917V46.25H12.3351V47.7917C12.3351 49.0183 11.8478 50.1947 10.9804 51.062C10.1131 51.9294 8.93669 52.4167 7.71006 52.4167C6.48344 52.4167 5.30705 51.9294 4.4397 51.062C3.57234 50.1947 3.08506 49.0183 3.08506 47.7917V43.8943C1.1919 42.1985 0.00173083 39.738 0.00173083 37V29.2053C0.00230704 27.7699 0.336939 26.3543 0.979147 25.0706L3.92681 19.1691C3.17975 18.86 2.44151 18.5299 1.71298 18.1793C1.34955 17.999 1.02527 17.7488 0.758734 17.4429C0.4922 17.137 0.288651 16.7815 0.159754 16.3969C0.0308567 16.0122 -0.0208541 15.6058 0.00758462 15.2011C0.0360234 14.7964 0.144053 14.4013 0.325481 14.0384C0.698489 13.3098 1.3434 12.7573 2.12067 12.5005C2.89794 12.2437 3.74506 12.3033 4.47873 12.6663C5.2064 13.0158 5.94434 13.3395 6.69256 13.6376L10.9568 5.11217C11.7251 3.57603 12.906 2.28415 14.3671 1.38124C15.8282 0.47833 17.5118 5.83614e-05 19.2294 0H42.4407ZM51.9066 21.2873C46.6649 22.9431 39.2063 24.6667 30.8351 24.6667C22.4638 24.6667 15.0052 22.94 9.76356 21.2873L6.49523 27.824C6.28034 28.2528 6.16843 28.7257 6.1684 29.2053V37C6.1684 37.8177 6.49325 38.602 7.07149 39.1802C7.64972 39.7585 8.43398 40.0833 9.25173 40.0833H52.4184C53.2361 40.0833 54.0204 39.7585 54.5986 39.1802C55.1769 38.602 55.5017 37.8177 55.5017 37V29.2053C55.5012 28.7268 55.3893 28.2549 55.1749 27.8271L51.9066 21.2873ZM16.9601 27.75C18.1867 27.75 19.3631 28.2373 20.2304 29.1046C21.0978 29.972 21.5851 31.1484 21.5851 32.375C21.5851 33.6016 21.0978 34.778 20.2304 35.6454C19.3631 36.5127 18.1867 37 16.9601 37C15.7334 37 14.557 36.5127 13.6897 35.6454C12.8223 34.778 12.3351 33.6016 12.3351 32.375C12.3351 31.1484 12.8223 29.972 13.6897 29.1046C14.557 28.2373 15.7334 27.75 16.9601 27.75ZM44.7101 27.75C45.9367 27.75 47.1131 28.2373 47.9804 29.1046C48.8478 29.972 49.3351 31.1484 49.3351 32.375C49.3351 33.6016 48.8478 34.778 47.9804 35.6454C47.1131 36.5127 45.9367 37 44.7101 37C43.4834 37 42.307 36.5127 41.4397 35.6454C40.5723 34.778 40.0851 33.6016 40.0851 32.375C40.0851 31.1484 40.5723 29.972 41.4397 29.1046C42.307 28.2373 43.4834 27.75 44.7101 27.75ZM42.4407 6.16667H19.2294C18.6569 6.16697 18.0959 6.32664 17.609 6.62779C17.1222 6.92893 16.7288 7.35967 16.4729 7.87175L12.5571 15.6942C17.3301 17.1279 23.7619 18.5 30.8351 18.5C37.9082 18.5 44.3401 17.1279 49.11 15.6942L45.1972 7.87175C44.9413 7.35967 44.5479 6.92893 44.0611 6.62779C43.5743 6.32664 43.0132 6.16697 42.4407 6.16667Z" fill="#1069E3"/>
</svg>
