<svg width="85" height="85" viewBox="0 0 85 85" fill="none" xmlns="http://www.w3.org/2000/svg">
<path d="M60.6076 34.0261C61.0934 33.5048 61.3579 32.8153 61.3453 32.1029C61.3327 31.3904 61.0441 30.7107 60.5403 30.2068C60.0364 29.703 59.3567 29.4144 58.6442 29.4018C57.9318 29.3892 57.2423 29.6537 56.721 30.1394L36.6643 50.1961L27.6076 41.1394C27.0863 40.6537 26.3968 40.3892 25.6844 40.4018C24.972 40.4144 24.2922 40.703 23.7884 41.2068C23.2845 41.7107 22.9959 42.3904 22.9833 43.1029C22.9708 43.8153 23.2352 44.5048 23.721 45.0261L34.721 56.0261C35.2366 56.5411 35.9356 56.8304 36.6643 56.8304C37.3931 56.8304 38.092 56.5411 38.6076 56.0261L60.6076 34.0261Z" fill="#079521"/>
<path d="M49.9977 2.56572L55.0394 6.26905C56.044 7.00605 57.2137 7.49005 58.4457 7.67705L64.6314 8.62672C67.4156 9.05456 69.9907 10.3595 71.9822 12.3516C73.9738 14.3438 75.2778 16.9194 75.7047 19.7037L76.6544 25.8857C76.8414 27.1177 77.3254 28.2874 78.0624 29.2921L81.7657 34.3337C83.4326 36.6048 84.3314 39.3485 84.3314 42.1657C84.3314 44.9829 83.4326 47.7266 81.7657 49.9977L78.0624 55.0394C77.325 56.0445 76.8419 57.2133 76.6544 58.4457L75.7047 64.6314C75.2769 67.4156 73.972 69.9907 71.9798 71.9822C69.9876 73.9738 67.4121 75.2778 64.6277 75.7047L58.4457 76.6544C57.2133 76.8419 56.0445 77.325 55.0394 78.0624L49.9977 81.7657C47.7266 83.4326 44.9829 84.3314 42.1657 84.3314C39.3485 84.3314 36.6048 83.4326 34.3337 81.7657L29.2921 78.0624C28.2869 77.325 27.1182 76.8419 25.8857 76.6544L19.7001 75.7047C16.9158 75.2769 14.3407 73.972 12.3492 71.9798C10.3577 69.9876 9.05364 67.4121 8.62672 64.6277L7.67705 58.4457C7.48801 57.2137 7.00506 56.0453 6.26905 55.0394L2.56572 49.9977C0.898822 47.7266 0 44.9829 0 42.1657C0 39.3485 0.898822 36.6048 2.56572 34.3337L6.26905 29.2921C7.00605 28.2874 7.49005 27.1177 7.67705 25.8857L8.62672 19.7001C9.05456 16.9158 10.3595 14.3407 12.3516 12.3492C14.3438 10.3577 16.9194 9.05364 19.7037 8.62672L25.8857 7.67705C27.1177 7.49005 28.2874 7.00605 29.2921 6.26905L34.3337 2.56572C36.6048 0.898822 39.3485 0 42.1657 0C44.9829 0 47.7266 0.898822 49.9977 2.56572ZM37.5897 6.99872L32.548 10.7021C30.8273 11.9639 28.8273 12.7916 26.7181 13.1147L20.5361 14.0607C18.9082 14.3108 17.4026 15.0735 16.2381 16.2381C15.0735 17.4026 14.3108 18.9082 14.0607 20.5361L13.1147 26.7181C12.7916 28.8262 11.9639 30.825 10.7021 32.5444L6.99872 37.5897C6.02523 38.9168 5.50034 40.5198 5.50034 42.1657C5.50034 43.8116 6.02523 45.4146 6.99872 46.7417L10.7021 51.7834C11.9634 53.503 12.7921 55.505 13.1147 57.6134L14.0607 63.7954C14.5741 67.1357 17.1957 69.7574 20.5361 70.2707L26.7181 71.2167C28.8262 71.5398 30.825 72.3675 32.5444 73.6294L37.5897 77.3327C38.9168 78.3062 40.5198 78.8311 42.1657 78.8311C43.8116 78.8311 45.4146 78.3062 46.7417 77.3327L51.7834 73.6294C53.5044 72.3687 55.5044 71.5422 57.6134 71.2204L63.7954 70.2671C65.4229 70.0177 66.9284 69.2557 68.093 68.0918C69.2576 66.9279 70.0205 65.4228 70.2707 63.7954L71.2167 57.6134C71.5398 55.5053 72.3675 53.5064 73.6294 51.787L77.3327 46.7417C78.3062 45.4146 78.8311 43.8116 78.8311 42.1657C78.8311 40.5198 78.3062 38.9168 77.3327 37.5897L73.6294 32.548C72.3687 30.827 71.5422 28.827 71.2204 26.7181L70.2671 20.5361C70.0177 18.9085 69.2557 17.403 68.0918 16.2384C66.9279 15.0738 65.4228 14.3109 63.7954 14.0607L57.6134 13.1147C55.5053 12.7916 53.5064 11.9639 51.787 10.7021L46.7417 6.99872C45.4146 6.02523 43.8116 5.50034 42.1657 5.50034C40.5198 5.50034 38.9168 6.02523 37.5897 6.99872Z" fill="#079521"/>
</svg>
