<svg width="47" height="82" viewBox="0 0 47 82" fill="none" xmlns="http://www.w3.org/2000/svg">
<path fill-rule="evenodd" clip-rule="evenodd" d="M10.25 5.125C7.41954 5.125 5.125 7.41954 5.125 10.25V71.75C5.125 74.5805 7.41954 76.875 10.25 76.875H35.875C38.7055 76.875 41 74.5805 41 71.75V10.25C41 7.41954 38.7055 5.125 35.875 5.125H10.25ZM0 10.25C0 4.58908 4.58908 0 10.25 0H35.875C41.5359 0 46.125 4.58908 46.125 10.25V71.75C46.125 77.4109 41.5359 82 35.875 82H10.25C4.58908 82 0 77.4109 0 71.75V10.25Z" fill="#FF6B6B"/>
<path fill-rule="evenodd" clip-rule="evenodd" d="M7.6875 2.5625C7.6875 1.14727 8.83477 0 10.25 0H14.0938C15.1132 0 16.0908 0.404964 16.8117 1.12581C17.5325 1.84665 17.9375 2.82433 17.9375 3.84375H28.1875C28.1875 2.82433 28.5925 1.84665 29.3133 1.12581C30.0342 0.404964 31.0118 0 32.0312 0H35.875C37.2902 0 38.4375 1.14727 38.4375 2.5625C38.4375 3.97773 37.2902 5.125 35.875 5.125H33.1498C32.9228 6.00397 32.4643 6.81482 31.8114 7.46767C30.8503 8.4288 29.5467 8.96875 28.1875 8.96875H17.9375C16.5783 8.96875 15.2747 8.4288 14.3136 7.46767C13.6607 6.81482 13.2022 6.00397 12.9752 5.125H10.25C8.83477 5.125 7.6875 3.97773 7.6875 2.5625Z" fill="#FF6B6B"/>
</svg>
