<svg width="68" height="68" viewBox="0 0 68 68" fill="none" xmlns="http://www.w3.org/2000/svg">
<path d="M66.2525 60.53L50.9996 45.2771C54.6718 40.3885 56.6542 34.438 56.6475 28.3238C56.6475 12.7061 43.9414 0 28.3238 0C12.7061 0 0 12.7061 0 28.3238C0 43.9414 12.7061 56.6475 28.3238 56.6475C34.438 56.6542 40.3885 54.6718 45.2771 50.9996L60.53 66.2525C61.3021 66.9427 62.3091 67.3111 63.3444 67.2821C64.3796 67.2532 65.3644 66.829 66.0967 66.0967C66.829 65.3644 67.2532 64.3796 67.2821 63.3444C67.3111 62.3091 66.9427 61.3021 66.2525 60.53ZM8.0925 28.3238C8.0925 24.3224 9.27904 20.4109 11.5021 17.0839C13.7251 13.7569 16.8848 11.1638 20.5816 9.63251C24.2784 8.10126 28.3462 7.70061 32.2707 8.48124C36.1951 9.26187 39.8 11.1887 42.6294 14.0181C45.4588 16.8475 47.3856 20.4524 48.1663 24.3768C48.9469 28.3013 48.5462 32.3691 47.015 36.0659C45.4837 39.7627 42.8906 42.9224 39.5636 45.1454C36.2366 47.3685 32.3251 48.555 28.3238 48.555C22.9601 48.5486 17.8179 46.415 14.0252 42.6223C10.2325 38.8296 8.09893 33.6874 8.0925 28.3238Z" fill="#F5A623"/>
</svg>
